G04 EAGLE Gerber RS-274X export*
G75*
%MOMM*%
%FSLAX34Y34*%
%LPD*%
%INSolderpaste Top*%
%IPPOS*%
%AMOC8*
5,1,8,0,0,1.08239X$1,22.5*%
G01*
%ADD10R,1.450000X0.400000*%
%ADD11R,1.500000X1.800000*%
%ADD12R,0.700000X1.500000*%
%ADD13R,1.100000X1.000000*%
%ADD14R,1.270000X1.470000*%
%ADD15R,1.400000X1.600000*%
%ADD16R,0.800000X1.200000*%
%ADD17R,1.200000X1.400000*%
%ADD18R,1.000000X1.100000*%
%ADD19R,0.600000X1.400000*%
%ADD20R,1.400000X0.600000*%
%ADD21R,1.200000X1.200000*%
%ADD22R,2.235200X1.219200*%
%ADD23R,2.200000X3.600000*%
%ADD24R,1.800000X0.750000*%


D10*
X48840Y381000D03*
X48840Y387500D03*
X48840Y394000D03*
X48840Y374500D03*
X48840Y368000D03*
D11*
X21590Y417840D03*
D12*
X21590Y381000D03*
D11*
X21590Y344160D03*
D13*
X80400Y390600D03*
X97400Y390600D03*
X80400Y377900D03*
X97400Y377900D03*
D14*
X67400Y419100D03*
X110400Y419100D03*
D13*
X135500Y203200D03*
X118500Y203200D03*
D15*
X36800Y139700D03*
X64800Y139700D03*
D16*
X136000Y222250D03*
X118000Y222250D03*
D13*
X131200Y469900D03*
X148200Y469900D03*
X131200Y457200D03*
X148200Y457200D03*
X270900Y152400D03*
X287900Y152400D03*
X270900Y165100D03*
X287900Y165100D03*
X270900Y177800D03*
X287900Y177800D03*
D17*
X243600Y222250D03*
X213600Y222250D03*
D13*
X237100Y196850D03*
X220100Y196850D03*
D17*
X243600Y107950D03*
X213600Y107950D03*
D13*
X237100Y133350D03*
X220100Y133350D03*
X455050Y95250D03*
X472050Y95250D03*
X510150Y330200D03*
X493150Y330200D03*
D18*
X381000Y188350D03*
X381000Y205350D03*
D13*
X537600Y330200D03*
X554600Y330200D03*
X455050Y82550D03*
X472050Y82550D03*
X510150Y342900D03*
X493150Y342900D03*
D18*
X368300Y188350D03*
X368300Y205350D03*
D13*
X537600Y342900D03*
X554600Y342900D03*
D19*
X553100Y310900D03*
X543100Y310900D03*
X533100Y310900D03*
X523100Y310900D03*
X513100Y310900D03*
X503100Y310900D03*
X493100Y310900D03*
X483100Y310900D03*
X473100Y310900D03*
X463100Y310900D03*
X453100Y310900D03*
X443100Y310900D03*
X433100Y310900D03*
X423100Y310900D03*
X413100Y310900D03*
D20*
X403100Y295900D03*
X403100Y285900D03*
X403100Y275900D03*
X403100Y265900D03*
X403100Y255900D03*
X403100Y245900D03*
X403100Y235900D03*
X403100Y225900D03*
X403100Y215900D03*
X403100Y205900D03*
X403100Y195900D03*
X403100Y185900D03*
X403100Y175900D03*
X403100Y165900D03*
X403100Y155900D03*
X403100Y145900D03*
X403100Y135900D03*
D19*
X413100Y120900D03*
X423100Y120900D03*
X433100Y120900D03*
X443100Y120900D03*
X453100Y120900D03*
X463100Y120900D03*
X473100Y120900D03*
X483100Y120900D03*
X493100Y120900D03*
X503100Y120900D03*
X513100Y120900D03*
X523100Y120900D03*
X533100Y120900D03*
X543100Y120900D03*
X553100Y120900D03*
D20*
X562100Y135900D03*
X562100Y145900D03*
X562100Y155900D03*
X562100Y165900D03*
X562100Y175900D03*
X562100Y185900D03*
X562100Y195900D03*
X562100Y205900D03*
X562100Y215900D03*
X562100Y225900D03*
X562100Y235900D03*
X562100Y245900D03*
X562100Y255900D03*
X562100Y265900D03*
X562100Y275900D03*
X562100Y285900D03*
X562100Y295900D03*
D21*
X512600Y250900D03*
X482600Y250900D03*
X452600Y250900D03*
X512600Y215900D03*
X482600Y215900D03*
X452600Y215900D03*
X512600Y180900D03*
X482600Y180900D03*
X452600Y180900D03*
X669300Y124700D03*
X669300Y307100D03*
D13*
X135500Y158750D03*
X118500Y158750D03*
X118500Y171450D03*
X135500Y171450D03*
D22*
X94488Y167386D03*
X94488Y190500D03*
X94488Y213614D03*
D23*
X32510Y190500D03*
D24*
X245600Y172350D03*
X245600Y157850D03*
X211600Y157850D03*
X211600Y172350D03*
D10*
X772740Y381000D03*
X772740Y387500D03*
X772740Y394000D03*
X772740Y374500D03*
X772740Y368000D03*
D11*
X745490Y417840D03*
D12*
X745490Y381000D03*
D11*
X745490Y344160D03*
D13*
X804300Y390600D03*
X821300Y390600D03*
X804300Y377900D03*
X821300Y377900D03*
D14*
X791300Y419100D03*
X834300Y419100D03*
D13*
X859400Y203200D03*
X842400Y203200D03*
D15*
X760700Y139700D03*
X788700Y139700D03*
D16*
X859900Y222250D03*
X841900Y222250D03*
D13*
X855100Y469900D03*
X872100Y469900D03*
X855100Y457200D03*
X872100Y457200D03*
X994800Y152400D03*
X1011800Y152400D03*
X994800Y165100D03*
X1011800Y165100D03*
X994800Y177800D03*
X1011800Y177800D03*
D17*
X967500Y222250D03*
X937500Y222250D03*
D13*
X961000Y196850D03*
X944000Y196850D03*
D17*
X967500Y107950D03*
X937500Y107950D03*
D13*
X961000Y133350D03*
X944000Y133350D03*
X1178950Y95250D03*
X1195950Y95250D03*
X1234050Y330200D03*
X1217050Y330200D03*
D18*
X1104900Y188350D03*
X1104900Y205350D03*
D13*
X1261500Y330200D03*
X1278500Y330200D03*
X1178950Y82550D03*
X1195950Y82550D03*
X1234050Y342900D03*
X1217050Y342900D03*
D18*
X1092200Y188350D03*
X1092200Y205350D03*
D13*
X1261500Y342900D03*
X1278500Y342900D03*
D19*
X1277000Y310900D03*
X1267000Y310900D03*
X1257000Y310900D03*
X1247000Y310900D03*
X1237000Y310900D03*
X1227000Y310900D03*
X1217000Y310900D03*
X1207000Y310900D03*
X1197000Y310900D03*
X1187000Y310900D03*
X1177000Y310900D03*
X1167000Y310900D03*
X1157000Y310900D03*
X1147000Y310900D03*
X1137000Y310900D03*
D20*
X1127000Y295900D03*
X1127000Y285900D03*
X1127000Y275900D03*
X1127000Y265900D03*
X1127000Y255900D03*
X1127000Y245900D03*
X1127000Y235900D03*
X1127000Y225900D03*
X1127000Y215900D03*
X1127000Y205900D03*
X1127000Y195900D03*
X1127000Y185900D03*
X1127000Y175900D03*
X1127000Y165900D03*
X1127000Y155900D03*
X1127000Y145900D03*
X1127000Y135900D03*
D19*
X1137000Y120900D03*
X1147000Y120900D03*
X1157000Y120900D03*
X1167000Y120900D03*
X1177000Y120900D03*
X1187000Y120900D03*
X1197000Y120900D03*
X1207000Y120900D03*
X1217000Y120900D03*
X1227000Y120900D03*
X1237000Y120900D03*
X1247000Y120900D03*
X1257000Y120900D03*
X1267000Y120900D03*
X1277000Y120900D03*
D20*
X1286000Y135900D03*
X1286000Y145900D03*
X1286000Y155900D03*
X1286000Y165900D03*
X1286000Y175900D03*
X1286000Y185900D03*
X1286000Y195900D03*
X1286000Y205900D03*
X1286000Y215900D03*
X1286000Y225900D03*
X1286000Y235900D03*
X1286000Y245900D03*
X1286000Y255900D03*
X1286000Y265900D03*
X1286000Y275900D03*
X1286000Y285900D03*
X1286000Y295900D03*
D21*
X1236500Y250900D03*
X1206500Y250900D03*
X1176500Y250900D03*
X1236500Y215900D03*
X1206500Y215900D03*
X1176500Y215900D03*
X1236500Y180900D03*
X1206500Y180900D03*
X1176500Y180900D03*
X1393200Y124700D03*
X1393200Y307100D03*
D13*
X859400Y158750D03*
X842400Y158750D03*
X842400Y171450D03*
X859400Y171450D03*
D22*
X818388Y167386D03*
X818388Y190500D03*
X818388Y213614D03*
D23*
X756410Y190500D03*
D24*
X969500Y172350D03*
X969500Y157850D03*
X935500Y157850D03*
X935500Y172350D03*
D10*
X1496640Y381000D03*
X1496640Y387500D03*
X1496640Y394000D03*
X1496640Y374500D03*
X1496640Y368000D03*
D11*
X1469390Y417840D03*
D12*
X1469390Y381000D03*
D11*
X1469390Y344160D03*
D13*
X1528200Y390600D03*
X1545200Y390600D03*
X1528200Y377900D03*
X1545200Y377900D03*
D14*
X1515200Y419100D03*
X1558200Y419100D03*
D13*
X1583300Y203200D03*
X1566300Y203200D03*
D15*
X1484600Y139700D03*
X1512600Y139700D03*
D16*
X1583800Y222250D03*
X1565800Y222250D03*
D13*
X1579000Y469900D03*
X1596000Y469900D03*
X1579000Y457200D03*
X1596000Y457200D03*
X1718700Y152400D03*
X1735700Y152400D03*
X1718700Y165100D03*
X1735700Y165100D03*
X1718700Y177800D03*
X1735700Y177800D03*
D17*
X1691400Y222250D03*
X1661400Y222250D03*
D13*
X1684900Y196850D03*
X1667900Y196850D03*
D17*
X1691400Y107950D03*
X1661400Y107950D03*
D13*
X1684900Y133350D03*
X1667900Y133350D03*
X1902850Y95250D03*
X1919850Y95250D03*
X1957950Y330200D03*
X1940950Y330200D03*
D18*
X1828800Y188350D03*
X1828800Y205350D03*
D13*
X1985400Y330200D03*
X2002400Y330200D03*
X1902850Y82550D03*
X1919850Y82550D03*
X1957950Y342900D03*
X1940950Y342900D03*
D18*
X1816100Y188350D03*
X1816100Y205350D03*
D13*
X1985400Y342900D03*
X2002400Y342900D03*
D19*
X2000900Y310900D03*
X1990900Y310900D03*
X1980900Y310900D03*
X1970900Y310900D03*
X1960900Y310900D03*
X1950900Y310900D03*
X1940900Y310900D03*
X1930900Y310900D03*
X1920900Y310900D03*
X1910900Y310900D03*
X1900900Y310900D03*
X1890900Y310900D03*
X1880900Y310900D03*
X1870900Y310900D03*
X1860900Y310900D03*
D20*
X1850900Y295900D03*
X1850900Y285900D03*
X1850900Y275900D03*
X1850900Y265900D03*
X1850900Y255900D03*
X1850900Y245900D03*
X1850900Y235900D03*
X1850900Y225900D03*
X1850900Y215900D03*
X1850900Y205900D03*
X1850900Y195900D03*
X1850900Y185900D03*
X1850900Y175900D03*
X1850900Y165900D03*
X1850900Y155900D03*
X1850900Y145900D03*
X1850900Y135900D03*
D19*
X1860900Y120900D03*
X1870900Y120900D03*
X1880900Y120900D03*
X1890900Y120900D03*
X1900900Y120900D03*
X1910900Y120900D03*
X1920900Y120900D03*
X1930900Y120900D03*
X1940900Y120900D03*
X1950900Y120900D03*
X1960900Y120900D03*
X1970900Y120900D03*
X1980900Y120900D03*
X1990900Y120900D03*
X2000900Y120900D03*
D20*
X2009900Y135900D03*
X2009900Y145900D03*
X2009900Y155900D03*
X2009900Y165900D03*
X2009900Y175900D03*
X2009900Y185900D03*
X2009900Y195900D03*
X2009900Y205900D03*
X2009900Y215900D03*
X2009900Y225900D03*
X2009900Y235900D03*
X2009900Y245900D03*
X2009900Y255900D03*
X2009900Y265900D03*
X2009900Y275900D03*
X2009900Y285900D03*
X2009900Y295900D03*
D21*
X1960400Y250900D03*
X1930400Y250900D03*
X1900400Y250900D03*
X1960400Y215900D03*
X1930400Y215900D03*
X1900400Y215900D03*
X1960400Y180900D03*
X1930400Y180900D03*
X1900400Y180900D03*
X2117100Y124700D03*
X2117100Y307100D03*
D13*
X1583300Y158750D03*
X1566300Y158750D03*
X1566300Y171450D03*
X1583300Y171450D03*
D22*
X1542288Y167386D03*
X1542288Y190500D03*
X1542288Y213614D03*
D23*
X1480310Y190500D03*
D24*
X1693400Y172350D03*
X1693400Y157850D03*
X1659400Y157850D03*
X1659400Y172350D03*
D10*
X2220540Y381000D03*
X2220540Y387500D03*
X2220540Y394000D03*
X2220540Y374500D03*
X2220540Y368000D03*
D11*
X2193290Y417840D03*
D12*
X2193290Y381000D03*
D11*
X2193290Y344160D03*
D13*
X2252100Y390600D03*
X2269100Y390600D03*
X2252100Y377900D03*
X2269100Y377900D03*
D14*
X2239100Y419100D03*
X2282100Y419100D03*
D13*
X2307200Y203200D03*
X2290200Y203200D03*
D15*
X2208500Y139700D03*
X2236500Y139700D03*
D16*
X2307700Y222250D03*
X2289700Y222250D03*
D13*
X2302900Y469900D03*
X2319900Y469900D03*
X2302900Y457200D03*
X2319900Y457200D03*
X2442600Y152400D03*
X2459600Y152400D03*
X2442600Y165100D03*
X2459600Y165100D03*
X2442600Y177800D03*
X2459600Y177800D03*
D17*
X2415300Y222250D03*
X2385300Y222250D03*
D13*
X2408800Y196850D03*
X2391800Y196850D03*
D17*
X2415300Y107950D03*
X2385300Y107950D03*
D13*
X2408800Y133350D03*
X2391800Y133350D03*
X2626750Y95250D03*
X2643750Y95250D03*
X2681850Y330200D03*
X2664850Y330200D03*
D18*
X2552700Y188350D03*
X2552700Y205350D03*
D13*
X2709300Y330200D03*
X2726300Y330200D03*
X2626750Y82550D03*
X2643750Y82550D03*
X2681850Y342900D03*
X2664850Y342900D03*
D18*
X2540000Y188350D03*
X2540000Y205350D03*
D13*
X2709300Y342900D03*
X2726300Y342900D03*
D19*
X2724800Y310900D03*
X2714800Y310900D03*
X2704800Y310900D03*
X2694800Y310900D03*
X2684800Y310900D03*
X2674800Y310900D03*
X2664800Y310900D03*
X2654800Y310900D03*
X2644800Y310900D03*
X2634800Y310900D03*
X2624800Y310900D03*
X2614800Y310900D03*
X2604800Y310900D03*
X2594800Y310900D03*
X2584800Y310900D03*
D20*
X2574800Y295900D03*
X2574800Y285900D03*
X2574800Y275900D03*
X2574800Y265900D03*
X2574800Y255900D03*
X2574800Y245900D03*
X2574800Y235900D03*
X2574800Y225900D03*
X2574800Y215900D03*
X2574800Y205900D03*
X2574800Y195900D03*
X2574800Y185900D03*
X2574800Y175900D03*
X2574800Y165900D03*
X2574800Y155900D03*
X2574800Y145900D03*
X2574800Y135900D03*
D19*
X2584800Y120900D03*
X2594800Y120900D03*
X2604800Y120900D03*
X2614800Y120900D03*
X2624800Y120900D03*
X2634800Y120900D03*
X2644800Y120900D03*
X2654800Y120900D03*
X2664800Y120900D03*
X2674800Y120900D03*
X2684800Y120900D03*
X2694800Y120900D03*
X2704800Y120900D03*
X2714800Y120900D03*
X2724800Y120900D03*
D20*
X2733800Y135900D03*
X2733800Y145900D03*
X2733800Y155900D03*
X2733800Y165900D03*
X2733800Y175900D03*
X2733800Y185900D03*
X2733800Y195900D03*
X2733800Y205900D03*
X2733800Y215900D03*
X2733800Y225900D03*
X2733800Y235900D03*
X2733800Y245900D03*
X2733800Y255900D03*
X2733800Y265900D03*
X2733800Y275900D03*
X2733800Y285900D03*
X2733800Y295900D03*
D21*
X2684300Y250900D03*
X2654300Y250900D03*
X2624300Y250900D03*
X2684300Y215900D03*
X2654300Y215900D03*
X2624300Y215900D03*
X2684300Y180900D03*
X2654300Y180900D03*
X2624300Y180900D03*
X2841000Y124700D03*
X2841000Y307100D03*
D13*
X2307200Y158750D03*
X2290200Y158750D03*
X2290200Y171450D03*
X2307200Y171450D03*
D22*
X2266188Y167386D03*
X2266188Y190500D03*
X2266188Y213614D03*
D23*
X2204210Y190500D03*
D24*
X2417300Y172350D03*
X2417300Y157850D03*
X2383300Y157850D03*
X2383300Y172350D03*
D10*
X48840Y977900D03*
X48840Y984400D03*
X48840Y990900D03*
X48840Y971400D03*
X48840Y964900D03*
D11*
X21590Y1014740D03*
D12*
X21590Y977900D03*
D11*
X21590Y941060D03*
D13*
X80400Y987500D03*
X97400Y987500D03*
X80400Y974800D03*
X97400Y974800D03*
D14*
X67400Y1016000D03*
X110400Y1016000D03*
D13*
X135500Y800100D03*
X118500Y800100D03*
D15*
X36800Y736600D03*
X64800Y736600D03*
D16*
X136000Y819150D03*
X118000Y819150D03*
D13*
X131200Y1066800D03*
X148200Y1066800D03*
X131200Y1054100D03*
X148200Y1054100D03*
X270900Y749300D03*
X287900Y749300D03*
X270900Y762000D03*
X287900Y762000D03*
X270900Y774700D03*
X287900Y774700D03*
D17*
X243600Y819150D03*
X213600Y819150D03*
D13*
X237100Y793750D03*
X220100Y793750D03*
D17*
X243600Y704850D03*
X213600Y704850D03*
D13*
X237100Y730250D03*
X220100Y730250D03*
X455050Y692150D03*
X472050Y692150D03*
X510150Y927100D03*
X493150Y927100D03*
D18*
X381000Y785250D03*
X381000Y802250D03*
D13*
X537600Y927100D03*
X554600Y927100D03*
X455050Y679450D03*
X472050Y679450D03*
X510150Y939800D03*
X493150Y939800D03*
D18*
X368300Y785250D03*
X368300Y802250D03*
D13*
X537600Y939800D03*
X554600Y939800D03*
D19*
X553100Y907800D03*
X543100Y907800D03*
X533100Y907800D03*
X523100Y907800D03*
X513100Y907800D03*
X503100Y907800D03*
X493100Y907800D03*
X483100Y907800D03*
X473100Y907800D03*
X463100Y907800D03*
X453100Y907800D03*
X443100Y907800D03*
X433100Y907800D03*
X423100Y907800D03*
X413100Y907800D03*
D20*
X403100Y892800D03*
X403100Y882800D03*
X403100Y872800D03*
X403100Y862800D03*
X403100Y852800D03*
X403100Y842800D03*
X403100Y832800D03*
X403100Y822800D03*
X403100Y812800D03*
X403100Y802800D03*
X403100Y792800D03*
X403100Y782800D03*
X403100Y772800D03*
X403100Y762800D03*
X403100Y752800D03*
X403100Y742800D03*
X403100Y732800D03*
D19*
X413100Y717800D03*
X423100Y717800D03*
X433100Y717800D03*
X443100Y717800D03*
X453100Y717800D03*
X463100Y717800D03*
X473100Y717800D03*
X483100Y717800D03*
X493100Y717800D03*
X503100Y717800D03*
X513100Y717800D03*
X523100Y717800D03*
X533100Y717800D03*
X543100Y717800D03*
X553100Y717800D03*
D20*
X562100Y732800D03*
X562100Y742800D03*
X562100Y752800D03*
X562100Y762800D03*
X562100Y772800D03*
X562100Y782800D03*
X562100Y792800D03*
X562100Y802800D03*
X562100Y812800D03*
X562100Y822800D03*
X562100Y832800D03*
X562100Y842800D03*
X562100Y852800D03*
X562100Y862800D03*
X562100Y872800D03*
X562100Y882800D03*
X562100Y892800D03*
D21*
X512600Y847800D03*
X482600Y847800D03*
X452600Y847800D03*
X512600Y812800D03*
X482600Y812800D03*
X452600Y812800D03*
X512600Y777800D03*
X482600Y777800D03*
X452600Y777800D03*
X669300Y721600D03*
X669300Y904000D03*
D13*
X135500Y755650D03*
X118500Y755650D03*
X118500Y768350D03*
X135500Y768350D03*
D22*
X94488Y764286D03*
X94488Y787400D03*
X94488Y810514D03*
D23*
X32510Y787400D03*
D24*
X245600Y769250D03*
X245600Y754750D03*
X211600Y754750D03*
X211600Y769250D03*
D10*
X772740Y977900D03*
X772740Y984400D03*
X772740Y990900D03*
X772740Y971400D03*
X772740Y964900D03*
D11*
X745490Y1014740D03*
D12*
X745490Y977900D03*
D11*
X745490Y941060D03*
D13*
X804300Y987500D03*
X821300Y987500D03*
X804300Y974800D03*
X821300Y974800D03*
D14*
X791300Y1016000D03*
X834300Y1016000D03*
D13*
X859400Y800100D03*
X842400Y800100D03*
D15*
X760700Y736600D03*
X788700Y736600D03*
D16*
X859900Y819150D03*
X841900Y819150D03*
D13*
X855100Y1066800D03*
X872100Y1066800D03*
X855100Y1054100D03*
X872100Y1054100D03*
X994800Y749300D03*
X1011800Y749300D03*
X994800Y762000D03*
X1011800Y762000D03*
X994800Y774700D03*
X1011800Y774700D03*
D17*
X967500Y819150D03*
X937500Y819150D03*
D13*
X961000Y793750D03*
X944000Y793750D03*
D17*
X967500Y704850D03*
X937500Y704850D03*
D13*
X961000Y730250D03*
X944000Y730250D03*
X1178950Y692150D03*
X1195950Y692150D03*
X1234050Y927100D03*
X1217050Y927100D03*
D18*
X1104900Y785250D03*
X1104900Y802250D03*
D13*
X1261500Y927100D03*
X1278500Y927100D03*
X1178950Y679450D03*
X1195950Y679450D03*
X1234050Y939800D03*
X1217050Y939800D03*
D18*
X1092200Y785250D03*
X1092200Y802250D03*
D13*
X1261500Y939800D03*
X1278500Y939800D03*
D19*
X1277000Y907800D03*
X1267000Y907800D03*
X1257000Y907800D03*
X1247000Y907800D03*
X1237000Y907800D03*
X1227000Y907800D03*
X1217000Y907800D03*
X1207000Y907800D03*
X1197000Y907800D03*
X1187000Y907800D03*
X1177000Y907800D03*
X1167000Y907800D03*
X1157000Y907800D03*
X1147000Y907800D03*
X1137000Y907800D03*
D20*
X1127000Y892800D03*
X1127000Y882800D03*
X1127000Y872800D03*
X1127000Y862800D03*
X1127000Y852800D03*
X1127000Y842800D03*
X1127000Y832800D03*
X1127000Y822800D03*
X1127000Y812800D03*
X1127000Y802800D03*
X1127000Y792800D03*
X1127000Y782800D03*
X1127000Y772800D03*
X1127000Y762800D03*
X1127000Y752800D03*
X1127000Y742800D03*
X1127000Y732800D03*
D19*
X1137000Y717800D03*
X1147000Y717800D03*
X1157000Y717800D03*
X1167000Y717800D03*
X1177000Y717800D03*
X1187000Y717800D03*
X1197000Y717800D03*
X1207000Y717800D03*
X1217000Y717800D03*
X1227000Y717800D03*
X1237000Y717800D03*
X1247000Y717800D03*
X1257000Y717800D03*
X1267000Y717800D03*
X1277000Y717800D03*
D20*
X1286000Y732800D03*
X1286000Y742800D03*
X1286000Y752800D03*
X1286000Y762800D03*
X1286000Y772800D03*
X1286000Y782800D03*
X1286000Y792800D03*
X1286000Y802800D03*
X1286000Y812800D03*
X1286000Y822800D03*
X1286000Y832800D03*
X1286000Y842800D03*
X1286000Y852800D03*
X1286000Y862800D03*
X1286000Y872800D03*
X1286000Y882800D03*
X1286000Y892800D03*
D21*
X1236500Y847800D03*
X1206500Y847800D03*
X1176500Y847800D03*
X1236500Y812800D03*
X1206500Y812800D03*
X1176500Y812800D03*
X1236500Y777800D03*
X1206500Y777800D03*
X1176500Y777800D03*
X1393200Y721600D03*
X1393200Y904000D03*
D13*
X859400Y755650D03*
X842400Y755650D03*
X842400Y768350D03*
X859400Y768350D03*
D22*
X818388Y764286D03*
X818388Y787400D03*
X818388Y810514D03*
D23*
X756410Y787400D03*
D24*
X969500Y769250D03*
X969500Y754750D03*
X935500Y754750D03*
X935500Y769250D03*
D10*
X1496640Y977900D03*
X1496640Y984400D03*
X1496640Y990900D03*
X1496640Y971400D03*
X1496640Y964900D03*
D11*
X1469390Y1014740D03*
D12*
X1469390Y977900D03*
D11*
X1469390Y941060D03*
D13*
X1528200Y987500D03*
X1545200Y987500D03*
X1528200Y974800D03*
X1545200Y974800D03*
D14*
X1515200Y1016000D03*
X1558200Y1016000D03*
D13*
X1583300Y800100D03*
X1566300Y800100D03*
D15*
X1484600Y736600D03*
X1512600Y736600D03*
D16*
X1583800Y819150D03*
X1565800Y819150D03*
D13*
X1579000Y1066800D03*
X1596000Y1066800D03*
X1579000Y1054100D03*
X1596000Y1054100D03*
X1718700Y749300D03*
X1735700Y749300D03*
X1718700Y762000D03*
X1735700Y762000D03*
X1718700Y774700D03*
X1735700Y774700D03*
D17*
X1691400Y819150D03*
X1661400Y819150D03*
D13*
X1684900Y793750D03*
X1667900Y793750D03*
D17*
X1691400Y704850D03*
X1661400Y704850D03*
D13*
X1684900Y730250D03*
X1667900Y730250D03*
X1902850Y692150D03*
X1919850Y692150D03*
X1957950Y927100D03*
X1940950Y927100D03*
D18*
X1828800Y785250D03*
X1828800Y802250D03*
D13*
X1985400Y927100D03*
X2002400Y927100D03*
X1902850Y679450D03*
X1919850Y679450D03*
X1957950Y939800D03*
X1940950Y939800D03*
D18*
X1816100Y785250D03*
X1816100Y802250D03*
D13*
X1985400Y939800D03*
X2002400Y939800D03*
D19*
X2000900Y907800D03*
X1990900Y907800D03*
X1980900Y907800D03*
X1970900Y907800D03*
X1960900Y907800D03*
X1950900Y907800D03*
X1940900Y907800D03*
X1930900Y907800D03*
X1920900Y907800D03*
X1910900Y907800D03*
X1900900Y907800D03*
X1890900Y907800D03*
X1880900Y907800D03*
X1870900Y907800D03*
X1860900Y907800D03*
D20*
X1850900Y892800D03*
X1850900Y882800D03*
X1850900Y872800D03*
X1850900Y862800D03*
X1850900Y852800D03*
X1850900Y842800D03*
X1850900Y832800D03*
X1850900Y822800D03*
X1850900Y812800D03*
X1850900Y802800D03*
X1850900Y792800D03*
X1850900Y782800D03*
X1850900Y772800D03*
X1850900Y762800D03*
X1850900Y752800D03*
X1850900Y742800D03*
X1850900Y732800D03*
D19*
X1860900Y717800D03*
X1870900Y717800D03*
X1880900Y717800D03*
X1890900Y717800D03*
X1900900Y717800D03*
X1910900Y717800D03*
X1920900Y717800D03*
X1930900Y717800D03*
X1940900Y717800D03*
X1950900Y717800D03*
X1960900Y717800D03*
X1970900Y717800D03*
X1980900Y717800D03*
X1990900Y717800D03*
X2000900Y717800D03*
D20*
X2009900Y732800D03*
X2009900Y742800D03*
X2009900Y752800D03*
X2009900Y762800D03*
X2009900Y772800D03*
X2009900Y782800D03*
X2009900Y792800D03*
X2009900Y802800D03*
X2009900Y812800D03*
X2009900Y822800D03*
X2009900Y832800D03*
X2009900Y842800D03*
X2009900Y852800D03*
X2009900Y862800D03*
X2009900Y872800D03*
X2009900Y882800D03*
X2009900Y892800D03*
D21*
X1960400Y847800D03*
X1930400Y847800D03*
X1900400Y847800D03*
X1960400Y812800D03*
X1930400Y812800D03*
X1900400Y812800D03*
X1960400Y777800D03*
X1930400Y777800D03*
X1900400Y777800D03*
X2117100Y721600D03*
X2117100Y904000D03*
D13*
X1583300Y755650D03*
X1566300Y755650D03*
X1566300Y768350D03*
X1583300Y768350D03*
D22*
X1542288Y764286D03*
X1542288Y787400D03*
X1542288Y810514D03*
D23*
X1480310Y787400D03*
D24*
X1693400Y769250D03*
X1693400Y754750D03*
X1659400Y754750D03*
X1659400Y769250D03*
D10*
X2220540Y977900D03*
X2220540Y984400D03*
X2220540Y990900D03*
X2220540Y971400D03*
X2220540Y964900D03*
D11*
X2193290Y1014740D03*
D12*
X2193290Y977900D03*
D11*
X2193290Y941060D03*
D13*
X2252100Y987500D03*
X2269100Y987500D03*
X2252100Y974800D03*
X2269100Y974800D03*
D14*
X2239100Y1016000D03*
X2282100Y1016000D03*
D13*
X2307200Y800100D03*
X2290200Y800100D03*
D15*
X2208500Y736600D03*
X2236500Y736600D03*
D16*
X2307700Y819150D03*
X2289700Y819150D03*
D13*
X2302900Y1066800D03*
X2319900Y1066800D03*
X2302900Y1054100D03*
X2319900Y1054100D03*
X2442600Y749300D03*
X2459600Y749300D03*
X2442600Y762000D03*
X2459600Y762000D03*
X2442600Y774700D03*
X2459600Y774700D03*
D17*
X2415300Y819150D03*
X2385300Y819150D03*
D13*
X2408800Y793750D03*
X2391800Y793750D03*
D17*
X2415300Y704850D03*
X2385300Y704850D03*
D13*
X2408800Y730250D03*
X2391800Y730250D03*
X2626750Y692150D03*
X2643750Y692150D03*
X2681850Y927100D03*
X2664850Y927100D03*
D18*
X2552700Y785250D03*
X2552700Y802250D03*
D13*
X2709300Y927100D03*
X2726300Y927100D03*
X2626750Y679450D03*
X2643750Y679450D03*
X2681850Y939800D03*
X2664850Y939800D03*
D18*
X2540000Y785250D03*
X2540000Y802250D03*
D13*
X2709300Y939800D03*
X2726300Y939800D03*
D19*
X2724800Y907800D03*
X2714800Y907800D03*
X2704800Y907800D03*
X2694800Y907800D03*
X2684800Y907800D03*
X2674800Y907800D03*
X2664800Y907800D03*
X2654800Y907800D03*
X2644800Y907800D03*
X2634800Y907800D03*
X2624800Y907800D03*
X2614800Y907800D03*
X2604800Y907800D03*
X2594800Y907800D03*
X2584800Y907800D03*
D20*
X2574800Y892800D03*
X2574800Y882800D03*
X2574800Y872800D03*
X2574800Y862800D03*
X2574800Y852800D03*
X2574800Y842800D03*
X2574800Y832800D03*
X2574800Y822800D03*
X2574800Y812800D03*
X2574800Y802800D03*
X2574800Y792800D03*
X2574800Y782800D03*
X2574800Y772800D03*
X2574800Y762800D03*
X2574800Y752800D03*
X2574800Y742800D03*
X2574800Y732800D03*
D19*
X2584800Y717800D03*
X2594800Y717800D03*
X2604800Y717800D03*
X2614800Y717800D03*
X2624800Y717800D03*
X2634800Y717800D03*
X2644800Y717800D03*
X2654800Y717800D03*
X2664800Y717800D03*
X2674800Y717800D03*
X2684800Y717800D03*
X2694800Y717800D03*
X2704800Y717800D03*
X2714800Y717800D03*
X2724800Y717800D03*
D20*
X2733800Y732800D03*
X2733800Y742800D03*
X2733800Y752800D03*
X2733800Y762800D03*
X2733800Y772800D03*
X2733800Y782800D03*
X2733800Y792800D03*
X2733800Y802800D03*
X2733800Y812800D03*
X2733800Y822800D03*
X2733800Y832800D03*
X2733800Y842800D03*
X2733800Y852800D03*
X2733800Y862800D03*
X2733800Y872800D03*
X2733800Y882800D03*
X2733800Y892800D03*
D21*
X2684300Y847800D03*
X2654300Y847800D03*
X2624300Y847800D03*
X2684300Y812800D03*
X2654300Y812800D03*
X2624300Y812800D03*
X2684300Y777800D03*
X2654300Y777800D03*
X2624300Y777800D03*
X2841000Y721600D03*
X2841000Y904000D03*
D13*
X2307200Y755650D03*
X2290200Y755650D03*
X2290200Y768350D03*
X2307200Y768350D03*
D22*
X2266188Y764286D03*
X2266188Y787400D03*
X2266188Y810514D03*
D23*
X2204210Y787400D03*
D24*
X2417300Y769250D03*
X2417300Y754750D03*
X2383300Y754750D03*
X2383300Y769250D03*
M02*
