M48
;GenerationSoftware,Autodesk,EAGLE,9.6.2*%
;CreationDate,2021-06-28T22:43:39Z*%
FMAT,2
ICI,OFF
METRIC,TZ,000.000
T7C0.381
T6C0.508
T5C0.850
T4C1.016
T3C2.997
T2C3.175
T1C3.200
%
G90
M71
T1
X155864Y7620
X228254Y7620
X83474Y7620
X11084Y67310
X83474Y67310
X228254Y67310
X155864Y67310
X11084Y7620
T2
X13970Y2540
X283210Y95250
X231140Y62230
X15240Y50800
X66040Y35560
X66040Y7620
X138430Y95250
X87630Y50800
X138430Y35560
X138430Y7620
X86360Y2540
X160020Y50800
X210820Y35560
X210820Y7620
X158750Y2540
X15240Y110490
X232410Y50800
X283210Y35560
X283210Y7620
X231140Y2540
X283210Y67310
X66040Y95250
X66040Y67310
X13970Y62230
X87630Y110490
X138430Y67310
X86360Y62230
X160020Y110490
X210820Y95250
X210820Y67310
X158750Y62230
X232410Y110490
T3
X225076Y3858
X76153Y7595
X80296Y63548
X148543Y67285
X3763Y67285
X220933Y67285
X7906Y63548
X152686Y63548
X220933Y7595
X76153Y67285
X225076Y63548
X3763Y7595
X7906Y3858
X80296Y3858
X148543Y7595
X152686Y3858
T4
X118110Y2413
X134620Y101600
X269240Y67310
X266700Y67310
X240030Y62230
X237490Y62230
X8331Y45999
X1829Y45999
X8331Y50521
X1829Y50521
X8331Y26949
X1829Y26949
X8331Y31471
X1829Y31471
X27940Y2667
X30480Y2413
X33020Y2667
X35560Y2413
X38100Y2667
X40640Y2413
X43180Y2667
X45720Y2413
X50800Y2667
X53340Y2413
X55880Y2667
X58420Y2413
X60960Y2667
X63500Y2413
X63500Y50673
X60960Y50927
X58420Y50673
X55880Y50927
X53340Y50673
X50800Y50927
X48260Y50673
X45720Y50927
X41656Y50673
X39116Y50927
X36576Y50673
X34036Y50927
X31496Y50673
X28956Y50927
X26416Y50673
X23876Y50927
X21336Y50673
X18796Y50927
X41910Y41910
X41910Y44450
X44450Y41910
X44450Y44450
X46990Y41910
X46990Y44450
X49530Y41910
X49530Y44450
X52070Y41910
X52070Y44450
X54610Y41910
X54610Y44450
X57150Y41910
X57150Y44450
X59690Y41910
X59690Y44450
X62230Y41910
X62230Y44450
X64770Y41910
X64770Y44450
X62230Y7620
X59690Y7620
X57150Y7620
X54610Y7620
X52070Y7620
X49530Y7620
X22860Y2540
X20320Y2540
X80721Y45999
X74219Y45999
X80721Y50521
X74219Y50521
X80721Y26949
X74219Y26949
X80721Y31471
X74219Y31471
X100330Y2667
X102870Y2413
X105410Y2667
X107950Y2413
X110490Y2667
X113030Y2413
X115570Y2667
X123190Y2667
X125730Y2413
X128270Y2667
X130810Y2413
X133350Y2667
X135890Y2413
X135890Y50673
X133350Y50927
X130810Y50673
X128270Y50927
X125730Y50673
X123190Y50927
X120650Y50673
X118110Y50927
X114046Y50673
X111506Y50927
X108966Y50673
X106426Y50927
X103886Y50673
X101346Y50927
X98806Y50673
X96266Y50927
X93726Y50673
X91186Y50927
X114300Y41910
X114300Y44450
X116840Y41910
X116840Y44450
X119380Y41910
X119380Y44450
X121920Y41910
X121920Y44450
X124460Y41910
X124460Y44450
X127000Y41910
X127000Y44450
X129540Y41910
X129540Y44450
X132080Y41910
X132080Y44450
X134620Y41910
X134620Y44450
X137160Y41910
X137160Y44450
X134620Y7620
X132080Y7620
X129540Y7620
X127000Y7620
X124460Y7620
X121920Y7620
X95250Y2540
X92710Y2540
X153111Y45999
X146609Y45999
X153111Y50521
X146609Y50521
X153111Y26949
X146609Y26949
X153111Y31471
X146609Y31471
X172720Y2667
X175260Y2413
X177800Y2667
X180340Y2413
X182880Y2667
X185420Y2413
X187960Y2667
X190500Y2413
X195580Y2667
X198120Y2413
X200660Y2667
X203200Y2413
X205740Y2667
X208280Y2413
X208280Y50673
X205740Y50927
X203200Y50673
X200660Y50927
X198120Y50673
X195580Y50927
X193040Y50673
X190500Y50927
X186436Y50673
X183896Y50927
X181356Y50673
X178816Y50927
X176276Y50673
X173736Y50927
X171196Y50673
X168656Y50927
X166116Y50673
X163576Y50927
X186690Y41910
X186690Y44450
X189230Y41910
X189230Y44450
X191770Y41910
X191770Y44450
X194310Y41910
X194310Y44450
X196850Y41910
X196850Y44450
X199390Y41910
X199390Y44450
X201930Y41910
X201930Y44450
X204470Y41910
X204470Y44450
X207010Y41910
X207010Y44450
X209550Y41910
X209550Y44450
X207010Y7620
X204470Y7620
X201930Y7620
X199390Y7620
X196850Y7620
X194310Y7620
X167640Y2540
X165100Y2540
X225501Y45999
X218999Y45999
X225501Y50521
X218999Y50521
X225501Y26949
X218999Y26949
X225501Y31471
X218999Y31471
X245110Y2667
X247650Y2413
X250190Y2667
X252730Y2413
X255270Y2667
X257810Y2413
X260350Y2667
X262890Y2413
X267970Y2667
X270510Y2413
X273050Y2667
X275590Y2413
X278130Y2667
X280670Y2413
X280670Y50673
X278130Y50927
X275590Y50673
X273050Y50927
X270510Y50673
X267970Y50927
X265430Y50673
X262890Y50927
X258826Y50673
X256286Y50927
X253746Y50673
X251206Y50927
X248666Y50673
X246126Y50927
X243586Y50673
X241046Y50927
X238506Y50673
X235966Y50927
X259080Y41910
X259080Y44450
X261620Y41910
X261620Y44450
X264160Y41910
X264160Y44450
X266700Y41910
X266700Y44450
X269240Y41910
X269240Y44450
X271780Y41910
X271780Y44450
X274320Y41910
X274320Y44450
X276860Y41910
X276860Y44450
X279400Y41910
X279400Y44450
X281940Y41910
X281940Y44450
X279400Y7620
X276860Y7620
X274320Y7620
X271780Y7620
X269240Y7620
X266700Y7620
X240030Y2540
X237490Y2540
X8331Y105689
X1829Y105689
X8331Y110211
X1829Y110211
X8331Y86639
X1829Y86639
X8331Y91161
X1829Y91161
X27940Y62357
X30480Y62103
X33020Y62357
X35560Y62103
X38100Y62357
X40640Y62103
X43180Y62357
X45720Y62103
X50800Y62357
X53340Y62103
X55880Y62357
X58420Y62103
X60960Y62357
X63500Y62103
X63500Y110363
X60960Y110617
X58420Y110363
X55880Y110617
X53340Y110363
X50800Y110617
X48260Y110363
X45720Y110617
X41656Y110363
X39116Y110617
X36576Y110363
X34036Y110617
X31496Y110363
X28956Y110617
X26416Y110363
X23876Y110617
X21336Y110363
X18796Y110617
X41910Y101600
X41910Y104140
X44450Y101600
X44450Y104140
X46990Y101600
X46990Y104140
X49530Y101600
X49530Y104140
X52070Y101600
X52070Y104140
X54610Y101600
X54610Y104140
X57150Y101600
X57150Y104140
X59690Y101600
X59690Y104140
X62230Y101600
X62230Y104140
X64770Y101600
X64770Y104140
X62230Y67310
X59690Y67310
X57150Y67310
X54610Y67310
X52070Y67310
X49530Y67310
X22860Y62230
X20320Y62230
X80721Y105689
X74219Y105689
X80721Y110211
X74219Y110211
X80721Y86639
X74219Y86639
X80721Y91161
X74219Y91161
X100330Y62357
X102870Y62103
X105410Y62357
X107950Y62103
X110490Y62357
X113030Y62103
X115570Y62357
X118110Y62103
X123190Y62357
X125730Y62103
X128270Y62357
X130810Y62103
X133350Y62357
X135890Y62103
X135890Y110363
X133350Y110617
X130810Y110363
X128270Y110617
X125730Y110363
X123190Y110617
X120650Y110363
X118110Y110617
X114046Y110363
X111506Y110617
X108966Y110363
X106426Y110617
X103886Y110363
X101346Y110617
X98806Y110363
X96266Y110617
X93726Y110363
X91186Y110617
X114300Y101600
X114300Y104140
X116840Y101600
X116840Y104140
X119380Y101600
X119380Y104140
X121920Y101600
X121920Y104140
X124460Y101600
X124460Y104140
X127000Y101600
X127000Y104140
X129540Y101600
X129540Y104140
X132080Y101600
X132080Y104140
X134620Y104140
X137160Y101600
X137160Y104140
X134620Y67310
X132080Y67310
X129540Y67310
X127000Y67310
X124460Y67310
X121920Y67310
X95250Y62230
X92710Y62230
X153111Y105689
X146609Y105689
X153111Y110211
X146609Y110211
X153111Y86639
X146609Y86639
X153111Y91161
X146609Y91161
X172720Y62357
X175260Y62103
X177800Y62357
X180340Y62103
X182880Y62357
X185420Y62103
X187960Y62357
X190500Y62103
X195580Y62357
X198120Y62103
X200660Y62357
X203200Y62103
X205740Y62357
X208280Y62103
X208280Y110363
X205740Y110617
X203200Y110363
X200660Y110617
X198120Y110363
X195580Y110617
X193040Y110363
X190500Y110617
X186436Y110363
X183896Y110617
X181356Y110363
X178816Y110617
X176276Y110363
X173736Y110617
X171196Y110363
X168656Y110617
X166116Y110363
X163576Y110617
X186690Y101600
X186690Y104140
X189230Y101600
X189230Y104140
X191770Y101600
X191770Y104140
X194310Y101600
X194310Y104140
X196850Y101600
X196850Y104140
X199390Y101600
X199390Y104140
X201930Y101600
X201930Y104140
X204470Y101600
X204470Y104140
X207010Y101600
X207010Y104140
X209550Y101600
X209550Y104140
X207010Y67310
X204470Y67310
X201930Y67310
X199390Y67310
X196850Y67310
X194310Y67310
X167640Y62230
X165100Y62230
X225501Y105689
X218999Y105689
X225501Y110211
X218999Y110211
X225501Y86639
X218999Y86639
X225501Y91161
X218999Y91161
X245110Y62357
X247650Y62103
X250190Y62357
X252730Y62103
X255270Y62357
X257810Y62103
X260350Y62357
X262890Y62103
X267970Y62357
X270510Y62103
X273050Y62357
X275590Y62103
X278130Y62357
X280670Y62103
X280670Y110363
X278130Y110617
X275590Y110363
X273050Y110617
X270510Y110363
X267970Y110617
X265430Y110363
X262890Y110617
X258826Y110363
X256286Y110617
X253746Y110363
X251206Y110617
X248666Y110363
X246126Y110617
X243586Y110363
X241046Y110617
X238506Y110363
X235966Y110617
X259080Y101600
X259080Y104140
X261620Y101600
X261620Y104140
X264160Y101600
X264160Y104140
X266700Y101600
X266700Y104140
X269240Y101600
X269240Y104140
X271780Y101600
X271780Y104140
X274320Y101600
X274320Y104140
X276860Y101600
X276860Y104140
X279400Y101600
X279400Y104140
X281940Y101600
X281940Y104140
X279400Y67310
X276860Y67310
X274320Y67310
X271780Y67310
T5
X4359Y40000
X4359Y36200
X76749Y40000
X76749Y36200
X76749Y99690
X221529Y40000
X149139Y36200
X149139Y40000
X149139Y95890
X4359Y95890
X4359Y99690
X221529Y36200
X221529Y95890
X221529Y99690
X149139Y99690
X76749Y95890
T6
X154305Y73025
X182372Y93980
X179070Y78740
X164338Y78740
X156210Y98750
X193040Y87915
X156210Y97480
X194009Y86915
X151520Y99831
X153670Y101600
X151130Y81029
X166370Y64770
X151260Y71914
X158750Y107950
X177800Y69469
X177546Y107950
X186944Y74549
X179324Y90424
X196215Y74803
X175005Y73280
X175005Y77344
X199517Y79280
X172720Y80010
X172720Y91313
X172720Y106299
X187706Y106299
X180975Y84074
X181254Y87198
X186563Y82407
X180340Y88138
X187484Y83280
X186563Y84280
X194310Y64770
X199517Y88280
X198501Y89280
X198247Y81153
X198755Y77280
X204470Y96266
X199517Y76280
X199390Y106680
X198120Y78740
X187963Y70358
X176530Y83312
X187820Y73279
X175006Y86233
X201041Y69723
X205740Y95250
X198501Y74280
X181356Y100076
X196090Y70356
X197358Y75280
X183230Y75280
X179426Y91719
X199517Y73533
X165481Y72009
X165735Y83439
X219329Y94107
X219329Y101473
X219329Y97790
X265430Y83058
X265430Y79502
X225044Y96139
X231775Y96266
X259486Y92329
X265049Y93345
X269748Y96393
X276098Y92329
X261112Y69088
X264541Y73406
X269621Y93345
X251079Y77343
X279400Y64770
X254127Y81661
X258953Y77280
X256286Y72200
X251460Y72200
X265430Y96393
X261620Y66040
X234315Y79820
X234315Y77661
X242824Y65913
X238760Y66040
X229743Y90551
X233172Y87884
X243840Y92964
X218440Y83185
X218440Y80645
X218440Y78105
X218440Y75565
X218440Y73025
X220345Y81915
X220345Y75565
X224790Y79756
X224790Y77470
X231902Y78740
X226695Y83185
X226695Y73025
X254762Y93980
X251460Y78740
X236728Y78740
X228600Y98750
X265430Y87915
X228600Y97480
X266399Y86915
X223910Y99831
X226060Y101600
X223520Y81029
X238760Y64770
X223650Y71914
X231140Y107950
X250190Y69469
X249936Y107950
X259334Y74549
X251714Y90424
X268605Y74803
X247395Y73280
X126111Y14590
X271907Y79280
X245110Y80010
X245110Y91313
X245110Y106299
X260096Y106299
X253365Y84074
X253644Y87198
X258953Y82407
X252730Y88138
X259874Y83280
X258953Y84280
X266700Y64770
X271907Y88280
X270891Y89280
X270637Y81153
X271145Y77280
X276860Y96266
X271907Y76280
X271780Y106680
X270510Y78740
X260353Y70358
X248920Y83312
X260210Y73279
X247396Y86233
X273431Y69723
X278130Y95250
X270891Y74280
X253746Y100076
X268480Y70356
X269748Y75280
X255620Y75280
X251816Y91719
X271907Y73533
X237871Y72009
X238125Y83439
X2159Y34417
X2159Y41783
X2159Y38100
X48260Y23368
X48260Y19812
X7874Y36449
X14605Y36576
X42316Y32639
X47879Y33655
X52578Y36703
X58928Y32639
X43942Y9398
X47371Y13716
X52451Y33655
X33909Y17653
X62230Y5080
X36957Y21971
X41783Y17590
X39116Y12510
X34290Y12510
X48260Y36703
X44450Y6350
X17145Y20130
X17145Y17971
X25654Y6223
X21590Y6350
X12573Y30861
X16002Y28194
X26670Y33274
X1270Y23495
X1270Y20955
X1270Y18415
X1270Y15875
X1270Y13335
X3175Y22225
X3175Y15875
X7620Y20066
X7620Y17780
X14732Y19050
X9525Y23495
X9525Y13335
X37592Y34290
X34290Y19050
X19558Y19050
X11430Y39060
X48260Y28225
X11430Y37790
X49229Y27225
X6740Y40141
X8890Y41910
X6350Y21339
X21590Y5080
X6480Y12224
X13970Y48260
X33020Y9779
X32766Y48260
X42164Y14859
X34544Y30734
X51435Y15113
X30225Y13590
X30225Y17654
X54737Y19590
X27940Y20320
X27940Y31623
X27940Y46609
X42926Y46609
X36195Y24384
X36474Y27508
X41783Y22717
X35560Y28448
X42704Y23590
X41783Y24590
X49530Y5080
X54737Y28590
X53721Y29590
X53467Y21463
X53975Y17590
X59690Y36576
X54737Y16590
X54610Y46990
X53340Y19050
X43183Y10668
X31750Y23622
X43040Y13589
X30226Y26543
X56261Y10033
X60960Y35560
X53721Y14590
X36576Y40386
X51310Y10666
X52578Y15590
X38450Y15590
X34646Y32029
X54737Y13843
X20701Y12319
X20955Y23749
X74549Y34417
X74549Y41783
X74549Y38100
X120650Y23368
X120650Y19812
X80264Y36449
X86995Y36576
X114706Y32639
X120269Y33655
X124968Y36703
X131318Y32639
X116332Y9398
X119761Y13716
X124841Y33655
X106299Y17653
X134620Y5080
X109347Y21971
X114173Y17590
X111506Y12510
X106680Y12510
X120650Y36703
X116840Y6350
X89535Y20130
X89535Y17971
X98044Y6223
X93980Y6350
X84963Y30861
X88392Y28194
X99060Y33274
X73660Y23495
X73660Y20955
X73660Y18415
X73660Y15875
X73660Y13335
X75565Y22225
X75565Y15875
X80010Y20066
X80010Y17780
X87122Y19050
X81915Y23495
X81915Y13335
X247395Y77344
X109982Y34290
X106680Y19050
X91948Y19050
X83820Y39060
X120650Y28225
X83820Y37790
X121619Y27225
X79130Y40141
X81280Y41910
X78740Y21339
X93980Y5080
X78870Y12224
X86360Y48260
X105410Y9779
X105156Y48260
X114554Y14859
X106934Y30734
X123825Y15113
X102615Y13590
X102615Y17654
X127127Y19590
X100330Y20320
X100330Y31623
X100330Y46609
X115316Y46609
X108585Y24384
X108864Y27508
X114173Y22717
X107950Y28448
X115094Y23590
X114173Y24590
X121920Y5080
X127127Y28590
X126111Y29590
X125857Y21463
X126365Y17590
X132080Y36576
X127127Y16590
X127000Y46990
X125730Y19050
X115573Y10668
X104140Y23622
X115430Y13589
X102616Y26543
X128651Y10033
X133350Y35560
X108966Y40386
X123700Y10666
X124968Y15590
X110840Y15590
X107036Y32029
X127127Y13843
X93091Y12319
X93345Y23749
X146939Y34417
X146939Y41783
X146939Y38100
X193040Y23368
X193040Y19812
X152654Y36449
X159385Y36576
X187096Y32639
X192659Y33655
X197358Y36703
X203708Y32639
X188722Y9398
X192151Y13716
X197231Y33655
X178689Y17653
X207010Y5080
X181737Y21971
X186563Y17590
X183896Y12510
X179070Y12510
X193040Y36703
X189230Y6350
X161925Y20130
X161925Y17971
X170434Y6223
X166370Y6350
X157353Y30861
X160782Y28194
X171450Y33274
X146050Y23495
X146050Y20955
X146050Y18415
X146050Y15875
X146050Y13335
X147955Y22225
X147955Y15875
X152400Y20066
X152400Y17780
X159512Y19050
X154305Y23495
X154305Y13335
X182372Y34290
X179070Y19050
X164338Y19050
X156210Y39060
X193040Y28225
X156210Y37790
X194009Y27225
X151520Y40141
X153670Y41910
X151130Y21339
X166370Y5080
X151260Y12224
X158750Y48260
X177800Y9779
X177546Y48260
X186944Y14859
X179324Y30734
X196215Y15113
X175005Y13590
X175005Y17654
X199517Y19590
X172720Y20320
X172720Y31623
X172720Y46609
X187706Y46609
X180975Y24384
X181254Y27508
X186563Y22717
X180340Y28448
X187484Y23590
X186563Y24590
X194310Y5080
X199517Y28590
X198501Y29590
X198247Y21463
X198755Y17590
X204470Y36576
X199517Y16590
X199390Y46990
X198120Y19050
X187963Y10668
X176530Y23622
X187820Y13589
X175006Y26543
X201041Y10033
X205740Y35560
X198501Y14590
X181356Y40386
X196090Y10666
X197358Y15590
X183230Y15590
X179426Y32029
X199517Y13843
X165481Y12319
X165735Y23749
X219329Y34417
X219329Y41783
X219329Y38100
X265430Y23368
X265430Y19812
X225044Y36449
X231775Y36576
X259486Y32639
X265049Y33655
X269748Y36703
X276098Y32639
X261112Y9398
X264541Y13716
X269621Y33655
X251079Y17653
X279400Y5080
X254127Y21971
X258953Y17590
X256286Y12510
X251460Y12510
X265430Y36703
X261620Y6350
X234315Y20130
X234315Y17971
X242824Y6223
X238760Y6350
X229743Y30861
X233172Y28194
X243840Y33274
X218440Y23495
X218440Y20955
X218440Y18415
X218440Y15875
X218440Y13335
X220345Y22225
X220345Y15875
X224790Y20066
X224790Y17780
X231902Y19050
X226695Y23495
X226695Y13335
X254762Y34290
X251460Y19050
X236728Y19050
X228600Y39060
X265430Y28225
X228600Y37790
X266399Y27225
X223910Y40141
X226060Y41910
X223520Y21339
X238760Y5080
X223650Y12224
X231140Y48260
X250190Y9779
X249936Y48260
X259334Y14859
X251714Y30734
X268605Y15113
X247395Y13590
X247395Y17654
X271907Y19590
X245110Y20320
X245110Y31623
X245110Y46609
X260096Y46609
X253365Y24384
X253644Y27508
X258953Y22717
X252730Y28448
X259874Y23590
X258953Y24590
X266700Y5080
X271907Y28590
X270891Y29590
X270637Y21463
X271145Y17590
X276860Y36576
X271907Y16590
X271780Y46990
X270510Y19050
X260353Y10668
X248920Y23622
X260210Y13589
X247396Y26543
X273431Y10033
X278130Y35560
X270891Y14590
X253746Y40386
X268480Y10666
X269748Y15590
X255620Y15590
X251816Y32029
X271907Y13843
X237871Y12319
X238125Y23749
X2159Y94107
X2159Y101473
X2159Y97790
X48260Y83058
X48260Y79502
X7874Y96139
X14605Y96266
X42316Y92329
X47879Y93345
X52578Y96393
X58928Y92329
X43942Y69088
X47371Y73406
X52451Y93345
X33909Y77343
X62230Y64770
X36957Y81661
X41783Y77280
X39116Y72200
X34290Y72200
X48260Y96393
X44450Y66040
X17145Y79820
X17145Y77661
X25654Y65913
X21590Y66040
X12573Y90551
X16002Y87884
X26670Y92964
X1270Y83185
X1270Y80645
X1270Y78105
X1270Y75565
X1270Y73025
X3175Y81915
X3175Y75565
X7620Y79756
X7620Y77470
X14732Y78740
X9525Y83185
X9525Y73025
X37592Y93980
X34290Y78740
X19558Y78740
X11430Y98750
X48260Y87915
X11430Y97480
X49229Y86915
X6740Y99831
X8890Y101600
X6350Y81029
X21590Y64770
X6480Y71914
X13970Y107950
X33020Y69469
X32766Y107950
X42164Y74549
X34544Y90424
X51435Y74803
X30225Y73280
X30225Y77344
X54737Y79280
X27940Y80010
X27940Y91313
X27940Y106299
X42926Y106299
X36195Y84074
X36474Y87198
X41783Y82407
X35560Y88138
X42704Y83280
X41783Y84280
X49530Y64770
X54737Y88280
X53721Y89280
X53467Y81153
X53975Y77280
X59690Y96266
X107950Y88138
X54737Y76280
X54610Y106680
X53340Y78740
X43183Y70358
X31750Y83312
X43040Y73279
X30226Y86233
X56261Y69723
X60960Y95250
X53721Y74280
X36576Y100076
X51310Y70356
X52578Y75280
X38450Y75280
X34646Y91719
X54737Y73533
X20701Y72009
X20955Y83439
X74549Y94107
X74549Y101473
X74549Y97790
X120650Y83058
X120650Y79502
X80264Y96139
X86995Y96266
X114706Y92329
X120269Y93345
X124968Y96393
X131318Y92329
X116332Y69088
X119761Y73406
X124841Y93345
X106299Y77343
X134620Y64770
X109347Y81661
X114173Y77280
X111506Y72200
X106680Y72200
X120650Y96393
X116840Y66040
X89535Y79820
X89535Y77661
X98044Y65913
X93980Y66040
X84963Y90551
X88392Y87884
X99060Y92964
X73660Y83185
X73660Y80645
X73660Y78105
X73660Y75565
X73660Y73025
X75565Y81915
X75565Y75565
X80010Y79756
X80010Y77470
X87122Y78740
X81915Y83185
X81915Y73025
X109982Y93980
X106680Y78740
X91948Y78740
X83820Y98750
X120650Y87915
X83820Y97480
X121619Y86915
X79130Y99831
X81280Y101600
X78740Y81029
X93980Y64770
X78870Y71914
X86360Y107950
X105410Y69469
X105156Y107950
X114554Y74549
X106934Y90424
X123825Y74803
X102615Y73280
X102615Y77344
X127127Y79280
X100330Y80010
X100330Y91313
X100330Y106299
X115316Y106299
X108585Y84074
X108864Y87198
X114173Y82407
X115094Y83280
X114173Y84280
X121920Y64770
X127127Y88280
X126111Y89280
X125857Y81153
X126365Y77280
X132080Y96266
X127127Y76280
X127000Y106680
X125730Y78740
X115573Y70358
X104140Y83312
X115430Y73279
X102616Y86233
X128651Y69723
X133350Y95250
X126111Y74280
X108966Y100076
X123700Y70356
X124968Y75280
X110840Y75280
X107036Y91719
X127127Y73533
X93091Y72009
X93345Y83439
X146939Y94107
X146939Y101473
X146939Y97790
X193040Y83058
X193040Y79502
X152654Y96139
X159385Y96266
X187096Y92329
X192659Y93345
X197358Y96393
X203708Y92329
X188722Y69088
X192151Y73406
X197231Y93345
X178689Y77343
X207010Y64770
X181737Y81661
X186563Y77280
X183896Y72200
X179070Y72200
X193040Y96393
X189230Y66040
X161925Y79820
X161925Y77661
X170434Y65913
X166370Y66040
X157353Y90551
X160782Y87884
X171450Y92964
X146050Y83185
X146050Y80645
X146050Y78105
X146050Y75565
X146050Y73025
X147955Y81915
X147955Y75565
X152400Y79756
X152400Y77470
X159512Y78740
X154305Y83185
T7
X110363Y26590
X111125Y25590
X127127Y25590
X113700Y10668
X54737Y23590
X54737Y21590
X271145Y22590
X53975Y82280
X54737Y83280
X54737Y81280
X38735Y89280
X37973Y88280
X38735Y87280
X37973Y86280
X38735Y85280
X54737Y85280
X41310Y70358
X271907Y23590
X271907Y21590
X255905Y29590
X255143Y28590
X255905Y27590
X255143Y26590
X255905Y25590
X271907Y25590
X258480Y10668
X38735Y29590
X37973Y28590
X38735Y27590
X37973Y26590
X38735Y25590
X54737Y25590
X41310Y10668
X53975Y22590
X126365Y22590
X198755Y22590
X199517Y23590
X199517Y21590
X126365Y82280
X127127Y83280
X127127Y81280
X111125Y89280
X110363Y88280
X111125Y87280
X110363Y86280
X111125Y85280
X127127Y85280
X113700Y70358
X183515Y29590
X182753Y28590
X183515Y27590
X182753Y26590
X183515Y25590
X199517Y25590
X186090Y10668
X127127Y23590
X127127Y21590
X111125Y29590
X110363Y28590
X198755Y82280
X199517Y83280
X199517Y81280
X183515Y89280
X182753Y88280
X183515Y87280
X182753Y86280
X183515Y85280
X199517Y85280
X186090Y70358
X111125Y27590
X271145Y82280
X271907Y83280
X271907Y81280
X255905Y89280
X255143Y88280
X255905Y87280
X255143Y86280
X255905Y85280
X271907Y85280
X258480Y70358
M30