G04 EAGLE Gerber RS-274X export*
G75*
%MOMM*%
%FSLAX34Y34*%
%LPD*%
%INSoldermask Top*%
%IPPOS*%
%AMOC8*
5,1,8,0,0,1.08239X$1,22.5*%
G01*
%ADD10R,1.653200X0.603200*%
%ADD11C,1.053200*%
%ADD12R,1.700000X2.000000*%
%ADD13R,1.700000X2.700000*%
%ADD14R,1.303200X1.203200*%
%ADD15R,1.473200X1.673200*%
%ADD16R,1.603200X1.803200*%
%ADD17R,1.003200X1.403200*%
%ADD18C,4.419200*%
%ADD19C,4.318000*%
%ADD20C,2.082800*%
%ADD21R,1.403200X1.603200*%
%ADD22C,3.378200*%
%ADD23C,2.133600*%
%ADD24R,1.203200X1.303200*%
%ADD25R,0.803200X1.603200*%
%ADD26R,1.603200X0.803200*%
%ADD27R,1.403200X1.403200*%
%ADD28P,2.254402X8X22.500000*%
%ADD29C,1.203200*%
%ADD30R,2.438400X1.422400*%
%ADD31R,2.403200X3.803200*%
%ADD32R,2.003200X0.953200*%
%ADD33C,1.270000*%
%ADD34C,1.703200*%


D10*
X48840Y381000D03*
X48840Y387500D03*
X48840Y394000D03*
X48840Y374500D03*
X48840Y368000D03*
D11*
X43590Y400000D03*
X43590Y362000D03*
D12*
X21590Y417840D03*
X21590Y344160D03*
D13*
X21590Y381000D03*
D14*
X80400Y390600D03*
X97400Y390600D03*
X80400Y377900D03*
X97400Y377900D03*
D15*
X67400Y419100D03*
X110400Y419100D03*
D14*
X135500Y203200D03*
X118500Y203200D03*
D16*
X36800Y139700D03*
X64800Y139700D03*
D17*
X136000Y222250D03*
X118000Y222250D03*
D18*
X110838Y76200D03*
D19*
X37630Y75946D03*
X79060Y38584D03*
D20*
X83312Y459994D03*
X18288Y459994D03*
X83312Y505206D03*
X18288Y505206D03*
X83312Y269494D03*
X18288Y269494D03*
X83312Y314706D03*
X18288Y314706D03*
D14*
X131200Y469900D03*
X148200Y469900D03*
X131200Y457200D03*
X148200Y457200D03*
X270900Y152400D03*
X287900Y152400D03*
X270900Y165100D03*
X287900Y165100D03*
X270900Y177800D03*
X287900Y177800D03*
D21*
X243600Y222250D03*
X213600Y222250D03*
D14*
X237100Y196850D03*
X220100Y196850D03*
D21*
X243600Y107950D03*
X213600Y107950D03*
D14*
X237100Y133350D03*
X220100Y133350D03*
D22*
X152400Y508000D03*
X660400Y355600D03*
X660400Y76200D03*
X139700Y25400D03*
D23*
X279400Y26670D03*
X304800Y24130D03*
X330200Y26670D03*
X355600Y24130D03*
X381000Y26670D03*
X406400Y24130D03*
X431800Y26670D03*
X457200Y24130D03*
X508000Y26670D03*
X533400Y24130D03*
X558800Y26670D03*
X584200Y24130D03*
X609600Y26670D03*
X635000Y24130D03*
X635000Y506730D03*
X609600Y509270D03*
X584200Y506730D03*
X558800Y509270D03*
X533400Y506730D03*
X508000Y509270D03*
X482600Y506730D03*
X457200Y509270D03*
X416560Y506730D03*
X391160Y509270D03*
X365760Y506730D03*
X340360Y509270D03*
X314960Y506730D03*
X289560Y509270D03*
X264160Y506730D03*
X238760Y509270D03*
X213360Y506730D03*
X187960Y509270D03*
D14*
X455050Y95250D03*
X472050Y95250D03*
X510150Y330200D03*
X493150Y330200D03*
D24*
X381000Y188350D03*
X381000Y205350D03*
D14*
X537600Y330200D03*
X554600Y330200D03*
X455050Y82550D03*
X472050Y82550D03*
X510150Y342900D03*
X493150Y342900D03*
D24*
X368300Y188350D03*
X368300Y205350D03*
D14*
X537600Y342900D03*
X554600Y342900D03*
D25*
X553100Y310900D03*
X543100Y310900D03*
X533100Y310900D03*
X523100Y310900D03*
X513100Y310900D03*
X503100Y310900D03*
X493100Y310900D03*
X483100Y310900D03*
X473100Y310900D03*
X463100Y310900D03*
X453100Y310900D03*
X443100Y310900D03*
X433100Y310900D03*
X423100Y310900D03*
X413100Y310900D03*
D26*
X403100Y295900D03*
X403100Y285900D03*
X403100Y275900D03*
X403100Y265900D03*
X403100Y255900D03*
X403100Y245900D03*
X403100Y235900D03*
X403100Y225900D03*
X403100Y215900D03*
X403100Y205900D03*
X403100Y195900D03*
X403100Y185900D03*
X403100Y175900D03*
X403100Y165900D03*
X403100Y155900D03*
X403100Y145900D03*
X403100Y135900D03*
D25*
X413100Y120900D03*
X423100Y120900D03*
X433100Y120900D03*
X443100Y120900D03*
X453100Y120900D03*
X463100Y120900D03*
X473100Y120900D03*
X483100Y120900D03*
X493100Y120900D03*
X503100Y120900D03*
X513100Y120900D03*
X523100Y120900D03*
X533100Y120900D03*
X543100Y120900D03*
X553100Y120900D03*
D26*
X562100Y135900D03*
X562100Y145900D03*
X562100Y155900D03*
X562100Y165900D03*
X562100Y175900D03*
X562100Y185900D03*
X562100Y195900D03*
X562100Y205900D03*
X562100Y215900D03*
X562100Y225900D03*
X562100Y235900D03*
X562100Y245900D03*
X562100Y255900D03*
X562100Y265900D03*
X562100Y275900D03*
X562100Y285900D03*
X562100Y295900D03*
D27*
X512600Y250900D03*
X482600Y250900D03*
X452600Y250900D03*
X512600Y215900D03*
X482600Y215900D03*
X452600Y215900D03*
X512600Y180900D03*
X482600Y180900D03*
X452600Y180900D03*
X669300Y124700D03*
X669300Y307100D03*
D28*
X419100Y419100D03*
X419100Y444500D03*
X444500Y419100D03*
X444500Y444500D03*
X469900Y419100D03*
X469900Y444500D03*
X495300Y419100D03*
X495300Y444500D03*
X520700Y419100D03*
X520700Y444500D03*
X546100Y419100D03*
X546100Y444500D03*
X571500Y419100D03*
X571500Y444500D03*
X596900Y419100D03*
X596900Y444500D03*
X622300Y419100D03*
X622300Y444500D03*
X647700Y419100D03*
X647700Y444500D03*
D20*
X622300Y76200D03*
X596900Y76200D03*
X571500Y76200D03*
X546100Y76200D03*
X520700Y76200D03*
X495300Y76200D03*
X228600Y25400D03*
X203200Y25400D03*
D29*
X12700Y25400D03*
X647700Y482600D03*
D14*
X135500Y158750D03*
X118500Y158750D03*
X118500Y171450D03*
X135500Y171450D03*
D30*
X94488Y167386D03*
X94488Y190500D03*
X94488Y213614D03*
D31*
X32510Y190500D03*
D32*
X245600Y172350D03*
X245600Y157850D03*
X211600Y157850D03*
X211600Y172350D03*
D10*
X772740Y381000D03*
X772740Y387500D03*
X772740Y394000D03*
X772740Y374500D03*
X772740Y368000D03*
D11*
X767490Y400000D03*
X767490Y362000D03*
D12*
X745490Y417840D03*
X745490Y344160D03*
D13*
X745490Y381000D03*
D14*
X804300Y390600D03*
X821300Y390600D03*
X804300Y377900D03*
X821300Y377900D03*
D15*
X791300Y419100D03*
X834300Y419100D03*
D14*
X859400Y203200D03*
X842400Y203200D03*
D16*
X760700Y139700D03*
X788700Y139700D03*
D17*
X859900Y222250D03*
X841900Y222250D03*
D18*
X834738Y76200D03*
D19*
X761530Y75946D03*
X802960Y38584D03*
D20*
X807212Y459994D03*
X742188Y459994D03*
X807212Y505206D03*
X742188Y505206D03*
X807212Y269494D03*
X742188Y269494D03*
X807212Y314706D03*
X742188Y314706D03*
D14*
X855100Y469900D03*
X872100Y469900D03*
X855100Y457200D03*
X872100Y457200D03*
X994800Y152400D03*
X1011800Y152400D03*
X994800Y165100D03*
X1011800Y165100D03*
X994800Y177800D03*
X1011800Y177800D03*
D21*
X967500Y222250D03*
X937500Y222250D03*
D14*
X961000Y196850D03*
X944000Y196850D03*
D21*
X967500Y107950D03*
X937500Y107950D03*
D14*
X961000Y133350D03*
X944000Y133350D03*
D22*
X876300Y508000D03*
X1384300Y355600D03*
X1384300Y76200D03*
X863600Y25400D03*
D23*
X1003300Y26670D03*
X1028700Y24130D03*
X1054100Y26670D03*
X1079500Y24130D03*
X1104900Y26670D03*
X1130300Y24130D03*
X1155700Y26670D03*
X1181100Y24130D03*
X1231900Y26670D03*
X1257300Y24130D03*
X1282700Y26670D03*
X1308100Y24130D03*
X1333500Y26670D03*
X1358900Y24130D03*
X1358900Y506730D03*
X1333500Y509270D03*
X1308100Y506730D03*
X1282700Y509270D03*
X1257300Y506730D03*
X1231900Y509270D03*
X1206500Y506730D03*
X1181100Y509270D03*
X1140460Y506730D03*
X1115060Y509270D03*
X1089660Y506730D03*
X1064260Y509270D03*
X1038860Y506730D03*
X1013460Y509270D03*
X988060Y506730D03*
X962660Y509270D03*
X937260Y506730D03*
X911860Y509270D03*
D14*
X1178950Y95250D03*
X1195950Y95250D03*
X1234050Y330200D03*
X1217050Y330200D03*
D24*
X1104900Y188350D03*
X1104900Y205350D03*
D14*
X1261500Y330200D03*
X1278500Y330200D03*
X1178950Y82550D03*
X1195950Y82550D03*
X1234050Y342900D03*
X1217050Y342900D03*
D24*
X1092200Y188350D03*
X1092200Y205350D03*
D14*
X1261500Y342900D03*
X1278500Y342900D03*
D25*
X1277000Y310900D03*
X1267000Y310900D03*
X1257000Y310900D03*
X1247000Y310900D03*
X1237000Y310900D03*
X1227000Y310900D03*
X1217000Y310900D03*
X1207000Y310900D03*
X1197000Y310900D03*
X1187000Y310900D03*
X1177000Y310900D03*
X1167000Y310900D03*
X1157000Y310900D03*
X1147000Y310900D03*
X1137000Y310900D03*
D26*
X1127000Y295900D03*
X1127000Y285900D03*
X1127000Y275900D03*
X1127000Y265900D03*
X1127000Y255900D03*
X1127000Y245900D03*
X1127000Y235900D03*
X1127000Y225900D03*
X1127000Y215900D03*
X1127000Y205900D03*
X1127000Y195900D03*
X1127000Y185900D03*
X1127000Y175900D03*
X1127000Y165900D03*
X1127000Y155900D03*
X1127000Y145900D03*
X1127000Y135900D03*
D25*
X1137000Y120900D03*
X1147000Y120900D03*
X1157000Y120900D03*
X1167000Y120900D03*
X1177000Y120900D03*
X1187000Y120900D03*
X1197000Y120900D03*
X1207000Y120900D03*
X1217000Y120900D03*
X1227000Y120900D03*
X1237000Y120900D03*
X1247000Y120900D03*
X1257000Y120900D03*
X1267000Y120900D03*
X1277000Y120900D03*
D26*
X1286000Y135900D03*
X1286000Y145900D03*
X1286000Y155900D03*
X1286000Y165900D03*
X1286000Y175900D03*
X1286000Y185900D03*
X1286000Y195900D03*
X1286000Y205900D03*
X1286000Y215900D03*
X1286000Y225900D03*
X1286000Y235900D03*
X1286000Y245900D03*
X1286000Y255900D03*
X1286000Y265900D03*
X1286000Y275900D03*
X1286000Y285900D03*
X1286000Y295900D03*
D27*
X1236500Y250900D03*
X1206500Y250900D03*
X1176500Y250900D03*
X1236500Y215900D03*
X1206500Y215900D03*
X1176500Y215900D03*
X1236500Y180900D03*
X1206500Y180900D03*
X1176500Y180900D03*
X1393200Y124700D03*
X1393200Y307100D03*
D28*
X1143000Y419100D03*
X1143000Y444500D03*
X1168400Y419100D03*
X1168400Y444500D03*
X1193800Y419100D03*
X1193800Y444500D03*
X1219200Y419100D03*
X1219200Y444500D03*
X1244600Y419100D03*
X1244600Y444500D03*
X1270000Y419100D03*
X1270000Y444500D03*
X1295400Y419100D03*
X1295400Y444500D03*
X1320800Y419100D03*
X1320800Y444500D03*
X1346200Y419100D03*
X1346200Y444500D03*
X1371600Y419100D03*
X1371600Y444500D03*
D20*
X1346200Y76200D03*
X1320800Y76200D03*
X1295400Y76200D03*
X1270000Y76200D03*
X1244600Y76200D03*
X1219200Y76200D03*
X952500Y25400D03*
X927100Y25400D03*
D29*
X736600Y25400D03*
X1371600Y482600D03*
D14*
X859400Y158750D03*
X842400Y158750D03*
X842400Y171450D03*
X859400Y171450D03*
D30*
X818388Y167386D03*
X818388Y190500D03*
X818388Y213614D03*
D31*
X756410Y190500D03*
D32*
X969500Y172350D03*
X969500Y157850D03*
X935500Y157850D03*
X935500Y172350D03*
D10*
X1496640Y381000D03*
X1496640Y387500D03*
X1496640Y394000D03*
X1496640Y374500D03*
X1496640Y368000D03*
D11*
X1491390Y400000D03*
X1491390Y362000D03*
D12*
X1469390Y417840D03*
X1469390Y344160D03*
D13*
X1469390Y381000D03*
D14*
X1528200Y390600D03*
X1545200Y390600D03*
X1528200Y377900D03*
X1545200Y377900D03*
D15*
X1515200Y419100D03*
X1558200Y419100D03*
D14*
X1583300Y203200D03*
X1566300Y203200D03*
D16*
X1484600Y139700D03*
X1512600Y139700D03*
D17*
X1583800Y222250D03*
X1565800Y222250D03*
D18*
X1558638Y76200D03*
D19*
X1485430Y75946D03*
X1526860Y38584D03*
D20*
X1531112Y459994D03*
X1466088Y459994D03*
X1531112Y505206D03*
X1466088Y505206D03*
X1531112Y269494D03*
X1466088Y269494D03*
X1531112Y314706D03*
X1466088Y314706D03*
D14*
X1579000Y469900D03*
X1596000Y469900D03*
X1579000Y457200D03*
X1596000Y457200D03*
X1718700Y152400D03*
X1735700Y152400D03*
X1718700Y165100D03*
X1735700Y165100D03*
X1718700Y177800D03*
X1735700Y177800D03*
D21*
X1691400Y222250D03*
X1661400Y222250D03*
D14*
X1684900Y196850D03*
X1667900Y196850D03*
D21*
X1691400Y107950D03*
X1661400Y107950D03*
D14*
X1684900Y133350D03*
X1667900Y133350D03*
D22*
X1600200Y508000D03*
X2108200Y355600D03*
X2108200Y76200D03*
X1587500Y25400D03*
D23*
X1727200Y26670D03*
X1752600Y24130D03*
X1778000Y26670D03*
X1803400Y24130D03*
X1828800Y26670D03*
X1854200Y24130D03*
X1879600Y26670D03*
X1905000Y24130D03*
X1955800Y26670D03*
X1981200Y24130D03*
X2006600Y26670D03*
X2032000Y24130D03*
X2057400Y26670D03*
X2082800Y24130D03*
X2082800Y506730D03*
X2057400Y509270D03*
X2032000Y506730D03*
X2006600Y509270D03*
X1981200Y506730D03*
X1955800Y509270D03*
X1930400Y506730D03*
X1905000Y509270D03*
X1864360Y506730D03*
X1838960Y509270D03*
X1813560Y506730D03*
X1788160Y509270D03*
X1762760Y506730D03*
X1737360Y509270D03*
X1711960Y506730D03*
X1686560Y509270D03*
X1661160Y506730D03*
X1635760Y509270D03*
D14*
X1902850Y95250D03*
X1919850Y95250D03*
X1957950Y330200D03*
X1940950Y330200D03*
D24*
X1828800Y188350D03*
X1828800Y205350D03*
D14*
X1985400Y330200D03*
X2002400Y330200D03*
X1902850Y82550D03*
X1919850Y82550D03*
X1957950Y342900D03*
X1940950Y342900D03*
D24*
X1816100Y188350D03*
X1816100Y205350D03*
D14*
X1985400Y342900D03*
X2002400Y342900D03*
D25*
X2000900Y310900D03*
X1990900Y310900D03*
X1980900Y310900D03*
X1970900Y310900D03*
X1960900Y310900D03*
X1950900Y310900D03*
X1940900Y310900D03*
X1930900Y310900D03*
X1920900Y310900D03*
X1910900Y310900D03*
X1900900Y310900D03*
X1890900Y310900D03*
X1880900Y310900D03*
X1870900Y310900D03*
X1860900Y310900D03*
D26*
X1850900Y295900D03*
X1850900Y285900D03*
X1850900Y275900D03*
X1850900Y265900D03*
X1850900Y255900D03*
X1850900Y245900D03*
X1850900Y235900D03*
X1850900Y225900D03*
X1850900Y215900D03*
X1850900Y205900D03*
X1850900Y195900D03*
X1850900Y185900D03*
X1850900Y175900D03*
X1850900Y165900D03*
X1850900Y155900D03*
X1850900Y145900D03*
X1850900Y135900D03*
D25*
X1860900Y120900D03*
X1870900Y120900D03*
X1880900Y120900D03*
X1890900Y120900D03*
X1900900Y120900D03*
X1910900Y120900D03*
X1920900Y120900D03*
X1930900Y120900D03*
X1940900Y120900D03*
X1950900Y120900D03*
X1960900Y120900D03*
X1970900Y120900D03*
X1980900Y120900D03*
X1990900Y120900D03*
X2000900Y120900D03*
D26*
X2009900Y135900D03*
X2009900Y145900D03*
X2009900Y155900D03*
X2009900Y165900D03*
X2009900Y175900D03*
X2009900Y185900D03*
X2009900Y195900D03*
X2009900Y205900D03*
X2009900Y215900D03*
X2009900Y225900D03*
X2009900Y235900D03*
X2009900Y245900D03*
X2009900Y255900D03*
X2009900Y265900D03*
X2009900Y275900D03*
X2009900Y285900D03*
X2009900Y295900D03*
D27*
X1960400Y250900D03*
X1930400Y250900D03*
X1900400Y250900D03*
X1960400Y215900D03*
X1930400Y215900D03*
X1900400Y215900D03*
X1960400Y180900D03*
X1930400Y180900D03*
X1900400Y180900D03*
X2117100Y124700D03*
X2117100Y307100D03*
D28*
X1866900Y419100D03*
X1866900Y444500D03*
X1892300Y419100D03*
X1892300Y444500D03*
X1917700Y419100D03*
X1917700Y444500D03*
X1943100Y419100D03*
X1943100Y444500D03*
X1968500Y419100D03*
X1968500Y444500D03*
X1993900Y419100D03*
X1993900Y444500D03*
X2019300Y419100D03*
X2019300Y444500D03*
X2044700Y419100D03*
X2044700Y444500D03*
X2070100Y419100D03*
X2070100Y444500D03*
X2095500Y419100D03*
X2095500Y444500D03*
D20*
X2070100Y76200D03*
X2044700Y76200D03*
X2019300Y76200D03*
X1993900Y76200D03*
X1968500Y76200D03*
X1943100Y76200D03*
X1676400Y25400D03*
X1651000Y25400D03*
D29*
X1460500Y25400D03*
X2095500Y482600D03*
D14*
X1583300Y158750D03*
X1566300Y158750D03*
X1566300Y171450D03*
X1583300Y171450D03*
D30*
X1542288Y167386D03*
X1542288Y190500D03*
X1542288Y213614D03*
D31*
X1480310Y190500D03*
D32*
X1693400Y172350D03*
X1693400Y157850D03*
X1659400Y157850D03*
X1659400Y172350D03*
D10*
X2220540Y381000D03*
X2220540Y387500D03*
X2220540Y394000D03*
X2220540Y374500D03*
X2220540Y368000D03*
D11*
X2215290Y400000D03*
X2215290Y362000D03*
D12*
X2193290Y417840D03*
X2193290Y344160D03*
D13*
X2193290Y381000D03*
D14*
X2252100Y390600D03*
X2269100Y390600D03*
X2252100Y377900D03*
X2269100Y377900D03*
D15*
X2239100Y419100D03*
X2282100Y419100D03*
D14*
X2307200Y203200D03*
X2290200Y203200D03*
D16*
X2208500Y139700D03*
X2236500Y139700D03*
D17*
X2307700Y222250D03*
X2289700Y222250D03*
D18*
X2282538Y76200D03*
D19*
X2209330Y75946D03*
X2250760Y38584D03*
D20*
X2255012Y459994D03*
X2189988Y459994D03*
X2255012Y505206D03*
X2189988Y505206D03*
X2255012Y269494D03*
X2189988Y269494D03*
X2255012Y314706D03*
X2189988Y314706D03*
D14*
X2302900Y469900D03*
X2319900Y469900D03*
X2302900Y457200D03*
X2319900Y457200D03*
X2442600Y152400D03*
X2459600Y152400D03*
X2442600Y165100D03*
X2459600Y165100D03*
X2442600Y177800D03*
X2459600Y177800D03*
D21*
X2415300Y222250D03*
X2385300Y222250D03*
D14*
X2408800Y196850D03*
X2391800Y196850D03*
D21*
X2415300Y107950D03*
X2385300Y107950D03*
D14*
X2408800Y133350D03*
X2391800Y133350D03*
D22*
X2324100Y508000D03*
X2832100Y355600D03*
X2832100Y76200D03*
X2311400Y25400D03*
D23*
X2451100Y26670D03*
X2476500Y24130D03*
X2501900Y26670D03*
X2527300Y24130D03*
X2552700Y26670D03*
X2578100Y24130D03*
X2603500Y26670D03*
X2628900Y24130D03*
X2679700Y26670D03*
X2705100Y24130D03*
X2730500Y26670D03*
X2755900Y24130D03*
X2781300Y26670D03*
X2806700Y24130D03*
X2806700Y506730D03*
X2781300Y509270D03*
X2755900Y506730D03*
X2730500Y509270D03*
X2705100Y506730D03*
X2679700Y509270D03*
X2654300Y506730D03*
X2628900Y509270D03*
X2588260Y506730D03*
X2562860Y509270D03*
X2537460Y506730D03*
X2512060Y509270D03*
X2486660Y506730D03*
X2461260Y509270D03*
X2435860Y506730D03*
X2410460Y509270D03*
X2385060Y506730D03*
X2359660Y509270D03*
D14*
X2626750Y95250D03*
X2643750Y95250D03*
X2681850Y330200D03*
X2664850Y330200D03*
D24*
X2552700Y188350D03*
X2552700Y205350D03*
D14*
X2709300Y330200D03*
X2726300Y330200D03*
X2626750Y82550D03*
X2643750Y82550D03*
X2681850Y342900D03*
X2664850Y342900D03*
D24*
X2540000Y188350D03*
X2540000Y205350D03*
D14*
X2709300Y342900D03*
X2726300Y342900D03*
D25*
X2724800Y310900D03*
X2714800Y310900D03*
X2704800Y310900D03*
X2694800Y310900D03*
X2684800Y310900D03*
X2674800Y310900D03*
X2664800Y310900D03*
X2654800Y310900D03*
X2644800Y310900D03*
X2634800Y310900D03*
X2624800Y310900D03*
X2614800Y310900D03*
X2604800Y310900D03*
X2594800Y310900D03*
X2584800Y310900D03*
D26*
X2574800Y295900D03*
X2574800Y285900D03*
X2574800Y275900D03*
X2574800Y265900D03*
X2574800Y255900D03*
X2574800Y245900D03*
X2574800Y235900D03*
X2574800Y225900D03*
X2574800Y215900D03*
X2574800Y205900D03*
X2574800Y195900D03*
X2574800Y185900D03*
X2574800Y175900D03*
X2574800Y165900D03*
X2574800Y155900D03*
X2574800Y145900D03*
X2574800Y135900D03*
D25*
X2584800Y120900D03*
X2594800Y120900D03*
X2604800Y120900D03*
X2614800Y120900D03*
X2624800Y120900D03*
X2634800Y120900D03*
X2644800Y120900D03*
X2654800Y120900D03*
X2664800Y120900D03*
X2674800Y120900D03*
X2684800Y120900D03*
X2694800Y120900D03*
X2704800Y120900D03*
X2714800Y120900D03*
X2724800Y120900D03*
D26*
X2733800Y135900D03*
X2733800Y145900D03*
X2733800Y155900D03*
X2733800Y165900D03*
X2733800Y175900D03*
X2733800Y185900D03*
X2733800Y195900D03*
X2733800Y205900D03*
X2733800Y215900D03*
X2733800Y225900D03*
X2733800Y235900D03*
X2733800Y245900D03*
X2733800Y255900D03*
X2733800Y265900D03*
X2733800Y275900D03*
X2733800Y285900D03*
X2733800Y295900D03*
D27*
X2684300Y250900D03*
X2654300Y250900D03*
X2624300Y250900D03*
X2684300Y215900D03*
X2654300Y215900D03*
X2624300Y215900D03*
X2684300Y180900D03*
X2654300Y180900D03*
X2624300Y180900D03*
X2841000Y124700D03*
X2841000Y307100D03*
D28*
X2590800Y419100D03*
X2590800Y444500D03*
X2616200Y419100D03*
X2616200Y444500D03*
X2641600Y419100D03*
X2641600Y444500D03*
X2667000Y419100D03*
X2667000Y444500D03*
X2692400Y419100D03*
X2692400Y444500D03*
X2717800Y419100D03*
X2717800Y444500D03*
X2743200Y419100D03*
X2743200Y444500D03*
X2768600Y419100D03*
X2768600Y444500D03*
X2794000Y419100D03*
X2794000Y444500D03*
X2819400Y419100D03*
X2819400Y444500D03*
D20*
X2794000Y76200D03*
X2768600Y76200D03*
X2743200Y76200D03*
X2717800Y76200D03*
X2692400Y76200D03*
X2667000Y76200D03*
X2400300Y25400D03*
X2374900Y25400D03*
D29*
X2184400Y25400D03*
X2819400Y482600D03*
D14*
X2307200Y158750D03*
X2290200Y158750D03*
X2290200Y171450D03*
X2307200Y171450D03*
D30*
X2266188Y167386D03*
X2266188Y190500D03*
X2266188Y213614D03*
D31*
X2204210Y190500D03*
D32*
X2417300Y172350D03*
X2417300Y157850D03*
X2383300Y157850D03*
X2383300Y172350D03*
D10*
X48840Y977900D03*
X48840Y984400D03*
X48840Y990900D03*
X48840Y971400D03*
X48840Y964900D03*
D11*
X43590Y996900D03*
X43590Y958900D03*
D12*
X21590Y1014740D03*
X21590Y941060D03*
D13*
X21590Y977900D03*
D14*
X80400Y987500D03*
X97400Y987500D03*
X80400Y974800D03*
X97400Y974800D03*
D15*
X67400Y1016000D03*
X110400Y1016000D03*
D14*
X135500Y800100D03*
X118500Y800100D03*
D16*
X36800Y736600D03*
X64800Y736600D03*
D17*
X136000Y819150D03*
X118000Y819150D03*
D18*
X110838Y673100D03*
D19*
X37630Y672846D03*
X79060Y635484D03*
D20*
X83312Y1056894D03*
X18288Y1056894D03*
X83312Y1102106D03*
X18288Y1102106D03*
X83312Y866394D03*
X18288Y866394D03*
X83312Y911606D03*
X18288Y911606D03*
D14*
X131200Y1066800D03*
X148200Y1066800D03*
X131200Y1054100D03*
X148200Y1054100D03*
X270900Y749300D03*
X287900Y749300D03*
X270900Y762000D03*
X287900Y762000D03*
X270900Y774700D03*
X287900Y774700D03*
D21*
X243600Y819150D03*
X213600Y819150D03*
D14*
X237100Y793750D03*
X220100Y793750D03*
D21*
X243600Y704850D03*
X213600Y704850D03*
D14*
X237100Y730250D03*
X220100Y730250D03*
D22*
X152400Y1104900D03*
X660400Y952500D03*
X660400Y673100D03*
X139700Y622300D03*
D23*
X279400Y623570D03*
X304800Y621030D03*
X330200Y623570D03*
X355600Y621030D03*
X381000Y623570D03*
X406400Y621030D03*
X431800Y623570D03*
X457200Y621030D03*
X508000Y623570D03*
X533400Y621030D03*
X558800Y623570D03*
X584200Y621030D03*
X609600Y623570D03*
X635000Y621030D03*
X635000Y1103630D03*
X609600Y1106170D03*
X584200Y1103630D03*
X558800Y1106170D03*
X533400Y1103630D03*
X508000Y1106170D03*
X482600Y1103630D03*
X457200Y1106170D03*
X416560Y1103630D03*
X391160Y1106170D03*
X365760Y1103630D03*
X340360Y1106170D03*
X314960Y1103630D03*
X289560Y1106170D03*
X264160Y1103630D03*
X238760Y1106170D03*
X213360Y1103630D03*
X187960Y1106170D03*
D14*
X455050Y692150D03*
X472050Y692150D03*
X510150Y927100D03*
X493150Y927100D03*
D24*
X381000Y785250D03*
X381000Y802250D03*
D14*
X537600Y927100D03*
X554600Y927100D03*
X455050Y679450D03*
X472050Y679450D03*
X510150Y939800D03*
X493150Y939800D03*
D24*
X368300Y785250D03*
X368300Y802250D03*
D14*
X537600Y939800D03*
X554600Y939800D03*
D25*
X553100Y907800D03*
X543100Y907800D03*
X533100Y907800D03*
X523100Y907800D03*
X513100Y907800D03*
X503100Y907800D03*
X493100Y907800D03*
X483100Y907800D03*
X473100Y907800D03*
X463100Y907800D03*
X453100Y907800D03*
X443100Y907800D03*
X433100Y907800D03*
X423100Y907800D03*
X413100Y907800D03*
D26*
X403100Y892800D03*
X403100Y882800D03*
X403100Y872800D03*
X403100Y862800D03*
X403100Y852800D03*
X403100Y842800D03*
X403100Y832800D03*
X403100Y822800D03*
X403100Y812800D03*
X403100Y802800D03*
X403100Y792800D03*
X403100Y782800D03*
X403100Y772800D03*
X403100Y762800D03*
X403100Y752800D03*
X403100Y742800D03*
X403100Y732800D03*
D25*
X413100Y717800D03*
X423100Y717800D03*
X433100Y717800D03*
X443100Y717800D03*
X453100Y717800D03*
X463100Y717800D03*
X473100Y717800D03*
X483100Y717800D03*
X493100Y717800D03*
X503100Y717800D03*
X513100Y717800D03*
X523100Y717800D03*
X533100Y717800D03*
X543100Y717800D03*
X553100Y717800D03*
D26*
X562100Y732800D03*
X562100Y742800D03*
X562100Y752800D03*
X562100Y762800D03*
X562100Y772800D03*
X562100Y782800D03*
X562100Y792800D03*
X562100Y802800D03*
X562100Y812800D03*
X562100Y822800D03*
X562100Y832800D03*
X562100Y842800D03*
X562100Y852800D03*
X562100Y862800D03*
X562100Y872800D03*
X562100Y882800D03*
X562100Y892800D03*
D27*
X512600Y847800D03*
X482600Y847800D03*
X452600Y847800D03*
X512600Y812800D03*
X482600Y812800D03*
X452600Y812800D03*
X512600Y777800D03*
X482600Y777800D03*
X452600Y777800D03*
X669300Y721600D03*
X669300Y904000D03*
D28*
X419100Y1016000D03*
X419100Y1041400D03*
X444500Y1016000D03*
X444500Y1041400D03*
X469900Y1016000D03*
X469900Y1041400D03*
X495300Y1016000D03*
X495300Y1041400D03*
X520700Y1016000D03*
X520700Y1041400D03*
X546100Y1016000D03*
X546100Y1041400D03*
X571500Y1016000D03*
X571500Y1041400D03*
X596900Y1016000D03*
X596900Y1041400D03*
X622300Y1016000D03*
X622300Y1041400D03*
X647700Y1016000D03*
X647700Y1041400D03*
D20*
X622300Y673100D03*
X596900Y673100D03*
X571500Y673100D03*
X546100Y673100D03*
X520700Y673100D03*
X495300Y673100D03*
X228600Y622300D03*
X203200Y622300D03*
D29*
X12700Y622300D03*
X647700Y1079500D03*
D14*
X135500Y755650D03*
X118500Y755650D03*
X118500Y768350D03*
X135500Y768350D03*
D30*
X94488Y764286D03*
X94488Y787400D03*
X94488Y810514D03*
D31*
X32510Y787400D03*
D32*
X245600Y769250D03*
X245600Y754750D03*
X211600Y754750D03*
X211600Y769250D03*
D10*
X772740Y977900D03*
X772740Y984400D03*
X772740Y990900D03*
X772740Y971400D03*
X772740Y964900D03*
D11*
X767490Y996900D03*
X767490Y958900D03*
D12*
X745490Y1014740D03*
X745490Y941060D03*
D13*
X745490Y977900D03*
D14*
X804300Y987500D03*
X821300Y987500D03*
X804300Y974800D03*
X821300Y974800D03*
D15*
X791300Y1016000D03*
X834300Y1016000D03*
D14*
X859400Y800100D03*
X842400Y800100D03*
D16*
X760700Y736600D03*
X788700Y736600D03*
D17*
X859900Y819150D03*
X841900Y819150D03*
D18*
X834738Y673100D03*
D19*
X761530Y672846D03*
X802960Y635484D03*
D20*
X807212Y1056894D03*
X742188Y1056894D03*
X807212Y1102106D03*
X742188Y1102106D03*
X807212Y866394D03*
X742188Y866394D03*
X807212Y911606D03*
X742188Y911606D03*
D14*
X855100Y1066800D03*
X872100Y1066800D03*
X855100Y1054100D03*
X872100Y1054100D03*
X994800Y749300D03*
X1011800Y749300D03*
X994800Y762000D03*
X1011800Y762000D03*
X994800Y774700D03*
X1011800Y774700D03*
D21*
X967500Y819150D03*
X937500Y819150D03*
D14*
X961000Y793750D03*
X944000Y793750D03*
D21*
X967500Y704850D03*
X937500Y704850D03*
D14*
X961000Y730250D03*
X944000Y730250D03*
D22*
X876300Y1104900D03*
X1384300Y952500D03*
X1384300Y673100D03*
X863600Y622300D03*
D23*
X1003300Y623570D03*
X1028700Y621030D03*
X1054100Y623570D03*
X1079500Y621030D03*
X1104900Y623570D03*
X1130300Y621030D03*
X1155700Y623570D03*
X1181100Y621030D03*
X1231900Y623570D03*
X1257300Y621030D03*
X1282700Y623570D03*
X1308100Y621030D03*
X1333500Y623570D03*
X1358900Y621030D03*
X1358900Y1103630D03*
X1333500Y1106170D03*
X1308100Y1103630D03*
X1282700Y1106170D03*
X1257300Y1103630D03*
X1231900Y1106170D03*
X1206500Y1103630D03*
X1181100Y1106170D03*
X1140460Y1103630D03*
X1115060Y1106170D03*
X1089660Y1103630D03*
X1064260Y1106170D03*
X1038860Y1103630D03*
X1013460Y1106170D03*
X988060Y1103630D03*
X962660Y1106170D03*
X937260Y1103630D03*
X911860Y1106170D03*
D14*
X1178950Y692150D03*
X1195950Y692150D03*
X1234050Y927100D03*
X1217050Y927100D03*
D24*
X1104900Y785250D03*
X1104900Y802250D03*
D14*
X1261500Y927100D03*
X1278500Y927100D03*
X1178950Y679450D03*
X1195950Y679450D03*
X1234050Y939800D03*
X1217050Y939800D03*
D24*
X1092200Y785250D03*
X1092200Y802250D03*
D14*
X1261500Y939800D03*
X1278500Y939800D03*
D25*
X1277000Y907800D03*
X1267000Y907800D03*
X1257000Y907800D03*
X1247000Y907800D03*
X1237000Y907800D03*
X1227000Y907800D03*
X1217000Y907800D03*
X1207000Y907800D03*
X1197000Y907800D03*
X1187000Y907800D03*
X1177000Y907800D03*
X1167000Y907800D03*
X1157000Y907800D03*
X1147000Y907800D03*
X1137000Y907800D03*
D26*
X1127000Y892800D03*
X1127000Y882800D03*
X1127000Y872800D03*
X1127000Y862800D03*
X1127000Y852800D03*
X1127000Y842800D03*
X1127000Y832800D03*
X1127000Y822800D03*
X1127000Y812800D03*
X1127000Y802800D03*
X1127000Y792800D03*
X1127000Y782800D03*
X1127000Y772800D03*
X1127000Y762800D03*
X1127000Y752800D03*
X1127000Y742800D03*
X1127000Y732800D03*
D25*
X1137000Y717800D03*
X1147000Y717800D03*
X1157000Y717800D03*
X1167000Y717800D03*
X1177000Y717800D03*
X1187000Y717800D03*
X1197000Y717800D03*
X1207000Y717800D03*
X1217000Y717800D03*
X1227000Y717800D03*
X1237000Y717800D03*
X1247000Y717800D03*
X1257000Y717800D03*
X1267000Y717800D03*
X1277000Y717800D03*
D26*
X1286000Y732800D03*
X1286000Y742800D03*
X1286000Y752800D03*
X1286000Y762800D03*
X1286000Y772800D03*
X1286000Y782800D03*
X1286000Y792800D03*
X1286000Y802800D03*
X1286000Y812800D03*
X1286000Y822800D03*
X1286000Y832800D03*
X1286000Y842800D03*
X1286000Y852800D03*
X1286000Y862800D03*
X1286000Y872800D03*
X1286000Y882800D03*
X1286000Y892800D03*
D27*
X1236500Y847800D03*
X1206500Y847800D03*
X1176500Y847800D03*
X1236500Y812800D03*
X1206500Y812800D03*
X1176500Y812800D03*
X1236500Y777800D03*
X1206500Y777800D03*
X1176500Y777800D03*
X1393200Y721600D03*
X1393200Y904000D03*
D28*
X1143000Y1016000D03*
X1143000Y1041400D03*
X1168400Y1016000D03*
X1168400Y1041400D03*
X1193800Y1016000D03*
X1193800Y1041400D03*
X1219200Y1016000D03*
X1219200Y1041400D03*
X1244600Y1016000D03*
X1244600Y1041400D03*
X1270000Y1016000D03*
X1270000Y1041400D03*
X1295400Y1016000D03*
X1295400Y1041400D03*
X1320800Y1016000D03*
X1320800Y1041400D03*
X1346200Y1016000D03*
X1346200Y1041400D03*
X1371600Y1016000D03*
X1371600Y1041400D03*
D20*
X1346200Y673100D03*
X1320800Y673100D03*
X1295400Y673100D03*
X1270000Y673100D03*
X1244600Y673100D03*
X1219200Y673100D03*
X952500Y622300D03*
X927100Y622300D03*
D29*
X736600Y622300D03*
X1371600Y1079500D03*
D14*
X859400Y755650D03*
X842400Y755650D03*
X842400Y768350D03*
X859400Y768350D03*
D30*
X818388Y764286D03*
X818388Y787400D03*
X818388Y810514D03*
D31*
X756410Y787400D03*
D32*
X969500Y769250D03*
X969500Y754750D03*
X935500Y754750D03*
X935500Y769250D03*
D10*
X1496640Y977900D03*
X1496640Y984400D03*
X1496640Y990900D03*
X1496640Y971400D03*
X1496640Y964900D03*
D11*
X1491390Y996900D03*
X1491390Y958900D03*
D12*
X1469390Y1014740D03*
X1469390Y941060D03*
D13*
X1469390Y977900D03*
D14*
X1528200Y987500D03*
X1545200Y987500D03*
X1528200Y974800D03*
X1545200Y974800D03*
D15*
X1515200Y1016000D03*
X1558200Y1016000D03*
D14*
X1583300Y800100D03*
X1566300Y800100D03*
D16*
X1484600Y736600D03*
X1512600Y736600D03*
D17*
X1583800Y819150D03*
X1565800Y819150D03*
D18*
X1558638Y673100D03*
D19*
X1485430Y672846D03*
X1526860Y635484D03*
D20*
X1531112Y1056894D03*
X1466088Y1056894D03*
X1531112Y1102106D03*
X1466088Y1102106D03*
X1531112Y866394D03*
X1466088Y866394D03*
X1531112Y911606D03*
X1466088Y911606D03*
D14*
X1579000Y1066800D03*
X1596000Y1066800D03*
X1579000Y1054100D03*
X1596000Y1054100D03*
X1718700Y749300D03*
X1735700Y749300D03*
X1718700Y762000D03*
X1735700Y762000D03*
X1718700Y774700D03*
X1735700Y774700D03*
D21*
X1691400Y819150D03*
X1661400Y819150D03*
D14*
X1684900Y793750D03*
X1667900Y793750D03*
D21*
X1691400Y704850D03*
X1661400Y704850D03*
D14*
X1684900Y730250D03*
X1667900Y730250D03*
D22*
X1600200Y1104900D03*
X2108200Y952500D03*
X2108200Y673100D03*
X1587500Y622300D03*
D23*
X1727200Y623570D03*
X1752600Y621030D03*
X1778000Y623570D03*
X1803400Y621030D03*
X1828800Y623570D03*
X1854200Y621030D03*
X1879600Y623570D03*
X1905000Y621030D03*
X1955800Y623570D03*
X1981200Y621030D03*
X2006600Y623570D03*
X2032000Y621030D03*
X2057400Y623570D03*
X2082800Y621030D03*
X2082800Y1103630D03*
X2057400Y1106170D03*
X2032000Y1103630D03*
X2006600Y1106170D03*
X1981200Y1103630D03*
X1955800Y1106170D03*
X1930400Y1103630D03*
X1905000Y1106170D03*
X1864360Y1103630D03*
X1838960Y1106170D03*
X1813560Y1103630D03*
X1788160Y1106170D03*
X1762760Y1103630D03*
X1737360Y1106170D03*
X1711960Y1103630D03*
X1686560Y1106170D03*
X1661160Y1103630D03*
X1635760Y1106170D03*
D14*
X1902850Y692150D03*
X1919850Y692150D03*
X1957950Y927100D03*
X1940950Y927100D03*
D24*
X1828800Y785250D03*
X1828800Y802250D03*
D14*
X1985400Y927100D03*
X2002400Y927100D03*
X1902850Y679450D03*
X1919850Y679450D03*
X1957950Y939800D03*
X1940950Y939800D03*
D24*
X1816100Y785250D03*
X1816100Y802250D03*
D14*
X1985400Y939800D03*
X2002400Y939800D03*
D25*
X2000900Y907800D03*
X1990900Y907800D03*
X1980900Y907800D03*
X1970900Y907800D03*
X1960900Y907800D03*
X1950900Y907800D03*
X1940900Y907800D03*
X1930900Y907800D03*
X1920900Y907800D03*
X1910900Y907800D03*
X1900900Y907800D03*
X1890900Y907800D03*
X1880900Y907800D03*
X1870900Y907800D03*
X1860900Y907800D03*
D26*
X1850900Y892800D03*
X1850900Y882800D03*
X1850900Y872800D03*
X1850900Y862800D03*
X1850900Y852800D03*
X1850900Y842800D03*
X1850900Y832800D03*
X1850900Y822800D03*
X1850900Y812800D03*
X1850900Y802800D03*
X1850900Y792800D03*
X1850900Y782800D03*
X1850900Y772800D03*
X1850900Y762800D03*
X1850900Y752800D03*
X1850900Y742800D03*
X1850900Y732800D03*
D25*
X1860900Y717800D03*
X1870900Y717800D03*
X1880900Y717800D03*
X1890900Y717800D03*
X1900900Y717800D03*
X1910900Y717800D03*
X1920900Y717800D03*
X1930900Y717800D03*
X1940900Y717800D03*
X1950900Y717800D03*
X1960900Y717800D03*
X1970900Y717800D03*
X1980900Y717800D03*
X1990900Y717800D03*
X2000900Y717800D03*
D26*
X2009900Y732800D03*
X2009900Y742800D03*
X2009900Y752800D03*
X2009900Y762800D03*
X2009900Y772800D03*
X2009900Y782800D03*
X2009900Y792800D03*
X2009900Y802800D03*
X2009900Y812800D03*
X2009900Y822800D03*
X2009900Y832800D03*
X2009900Y842800D03*
X2009900Y852800D03*
X2009900Y862800D03*
X2009900Y872800D03*
X2009900Y882800D03*
X2009900Y892800D03*
D27*
X1960400Y847800D03*
X1930400Y847800D03*
X1900400Y847800D03*
X1960400Y812800D03*
X1930400Y812800D03*
X1900400Y812800D03*
X1960400Y777800D03*
X1930400Y777800D03*
X1900400Y777800D03*
X2117100Y721600D03*
X2117100Y904000D03*
D28*
X1866900Y1016000D03*
X1866900Y1041400D03*
X1892300Y1016000D03*
X1892300Y1041400D03*
X1917700Y1016000D03*
X1917700Y1041400D03*
X1943100Y1016000D03*
X1943100Y1041400D03*
X1968500Y1016000D03*
X1968500Y1041400D03*
X1993900Y1016000D03*
X1993900Y1041400D03*
X2019300Y1016000D03*
X2019300Y1041400D03*
X2044700Y1016000D03*
X2044700Y1041400D03*
X2070100Y1016000D03*
X2070100Y1041400D03*
X2095500Y1016000D03*
X2095500Y1041400D03*
D20*
X2070100Y673100D03*
X2044700Y673100D03*
X2019300Y673100D03*
X1993900Y673100D03*
X1968500Y673100D03*
X1943100Y673100D03*
X1676400Y622300D03*
X1651000Y622300D03*
D29*
X1460500Y622300D03*
X2095500Y1079500D03*
D14*
X1583300Y755650D03*
X1566300Y755650D03*
X1566300Y768350D03*
X1583300Y768350D03*
D30*
X1542288Y764286D03*
X1542288Y787400D03*
X1542288Y810514D03*
D31*
X1480310Y787400D03*
D32*
X1693400Y769250D03*
X1693400Y754750D03*
X1659400Y754750D03*
X1659400Y769250D03*
D10*
X2220540Y977900D03*
X2220540Y984400D03*
X2220540Y990900D03*
X2220540Y971400D03*
X2220540Y964900D03*
D11*
X2215290Y996900D03*
X2215290Y958900D03*
D12*
X2193290Y1014740D03*
X2193290Y941060D03*
D13*
X2193290Y977900D03*
D14*
X2252100Y987500D03*
X2269100Y987500D03*
X2252100Y974800D03*
X2269100Y974800D03*
D15*
X2239100Y1016000D03*
X2282100Y1016000D03*
D14*
X2307200Y800100D03*
X2290200Y800100D03*
D16*
X2208500Y736600D03*
X2236500Y736600D03*
D17*
X2307700Y819150D03*
X2289700Y819150D03*
D18*
X2282538Y673100D03*
D19*
X2209330Y672846D03*
X2250760Y635484D03*
D20*
X2255012Y1056894D03*
X2189988Y1056894D03*
X2255012Y1102106D03*
X2189988Y1102106D03*
X2255012Y866394D03*
X2189988Y866394D03*
X2255012Y911606D03*
X2189988Y911606D03*
D14*
X2302900Y1066800D03*
X2319900Y1066800D03*
X2302900Y1054100D03*
X2319900Y1054100D03*
X2442600Y749300D03*
X2459600Y749300D03*
X2442600Y762000D03*
X2459600Y762000D03*
X2442600Y774700D03*
X2459600Y774700D03*
D21*
X2415300Y819150D03*
X2385300Y819150D03*
D14*
X2408800Y793750D03*
X2391800Y793750D03*
D21*
X2415300Y704850D03*
X2385300Y704850D03*
D14*
X2408800Y730250D03*
X2391800Y730250D03*
D22*
X2324100Y1104900D03*
X2832100Y952500D03*
X2832100Y673100D03*
X2311400Y622300D03*
D23*
X2451100Y623570D03*
X2476500Y621030D03*
X2501900Y623570D03*
X2527300Y621030D03*
X2552700Y623570D03*
X2578100Y621030D03*
X2603500Y623570D03*
X2628900Y621030D03*
X2679700Y623570D03*
X2705100Y621030D03*
X2730500Y623570D03*
X2755900Y621030D03*
X2781300Y623570D03*
X2806700Y621030D03*
X2806700Y1103630D03*
X2781300Y1106170D03*
X2755900Y1103630D03*
X2730500Y1106170D03*
X2705100Y1103630D03*
X2679700Y1106170D03*
X2654300Y1103630D03*
X2628900Y1106170D03*
X2588260Y1103630D03*
X2562860Y1106170D03*
X2537460Y1103630D03*
X2512060Y1106170D03*
X2486660Y1103630D03*
X2461260Y1106170D03*
X2435860Y1103630D03*
X2410460Y1106170D03*
X2385060Y1103630D03*
X2359660Y1106170D03*
D14*
X2626750Y692150D03*
X2643750Y692150D03*
X2681850Y927100D03*
X2664850Y927100D03*
D24*
X2552700Y785250D03*
X2552700Y802250D03*
D14*
X2709300Y927100D03*
X2726300Y927100D03*
X2626750Y679450D03*
X2643750Y679450D03*
X2681850Y939800D03*
X2664850Y939800D03*
D24*
X2540000Y785250D03*
X2540000Y802250D03*
D14*
X2709300Y939800D03*
X2726300Y939800D03*
D25*
X2724800Y907800D03*
X2714800Y907800D03*
X2704800Y907800D03*
X2694800Y907800D03*
X2684800Y907800D03*
X2674800Y907800D03*
X2664800Y907800D03*
X2654800Y907800D03*
X2644800Y907800D03*
X2634800Y907800D03*
X2624800Y907800D03*
X2614800Y907800D03*
X2604800Y907800D03*
X2594800Y907800D03*
X2584800Y907800D03*
D26*
X2574800Y892800D03*
X2574800Y882800D03*
X2574800Y872800D03*
X2574800Y862800D03*
X2574800Y852800D03*
X2574800Y842800D03*
X2574800Y832800D03*
X2574800Y822800D03*
X2574800Y812800D03*
X2574800Y802800D03*
X2574800Y792800D03*
X2574800Y782800D03*
X2574800Y772800D03*
X2574800Y762800D03*
X2574800Y752800D03*
X2574800Y742800D03*
X2574800Y732800D03*
D25*
X2584800Y717800D03*
X2594800Y717800D03*
X2604800Y717800D03*
X2614800Y717800D03*
X2624800Y717800D03*
X2634800Y717800D03*
X2644800Y717800D03*
X2654800Y717800D03*
X2664800Y717800D03*
X2674800Y717800D03*
X2684800Y717800D03*
X2694800Y717800D03*
X2704800Y717800D03*
X2714800Y717800D03*
X2724800Y717800D03*
D26*
X2733800Y732800D03*
X2733800Y742800D03*
X2733800Y752800D03*
X2733800Y762800D03*
X2733800Y772800D03*
X2733800Y782800D03*
X2733800Y792800D03*
X2733800Y802800D03*
X2733800Y812800D03*
X2733800Y822800D03*
X2733800Y832800D03*
X2733800Y842800D03*
X2733800Y852800D03*
X2733800Y862800D03*
X2733800Y872800D03*
X2733800Y882800D03*
X2733800Y892800D03*
D27*
X2684300Y847800D03*
X2654300Y847800D03*
X2624300Y847800D03*
X2684300Y812800D03*
X2654300Y812800D03*
X2624300Y812800D03*
X2684300Y777800D03*
X2654300Y777800D03*
X2624300Y777800D03*
X2841000Y721600D03*
X2841000Y904000D03*
D28*
X2590800Y1016000D03*
X2590800Y1041400D03*
X2616200Y1016000D03*
X2616200Y1041400D03*
X2641600Y1016000D03*
X2641600Y1041400D03*
X2667000Y1016000D03*
X2667000Y1041400D03*
X2692400Y1016000D03*
X2692400Y1041400D03*
X2717800Y1016000D03*
X2717800Y1041400D03*
X2743200Y1016000D03*
X2743200Y1041400D03*
X2768600Y1016000D03*
X2768600Y1041400D03*
X2794000Y1016000D03*
X2794000Y1041400D03*
X2819400Y1016000D03*
X2819400Y1041400D03*
D20*
X2794000Y673100D03*
X2768600Y673100D03*
X2743200Y673100D03*
X2717800Y673100D03*
X2692400Y673100D03*
X2667000Y673100D03*
X2400300Y622300D03*
X2374900Y622300D03*
D29*
X2184400Y622300D03*
X2819400Y1079500D03*
D14*
X2307200Y755650D03*
X2290200Y755650D03*
X2290200Y768350D03*
X2307200Y768350D03*
D30*
X2266188Y764286D03*
X2266188Y787400D03*
X2266188Y810514D03*
D31*
X2204210Y787400D03*
D32*
X2417300Y769250D03*
X2417300Y754750D03*
X2383300Y754750D03*
X2383300Y769250D03*
D29*
X101600Y1151255D03*
X2794000Y1151255D03*
D33*
X92545Y-20955D02*
X92548Y-20733D01*
X92556Y-20511D01*
X92570Y-20289D01*
X92589Y-20067D01*
X92613Y-19847D01*
X92643Y-19626D01*
X92678Y-19407D01*
X92719Y-19188D01*
X92765Y-18971D01*
X92816Y-18755D01*
X92873Y-18540D01*
X92935Y-18326D01*
X93002Y-18115D01*
X93074Y-17904D01*
X93152Y-17696D01*
X93234Y-17490D01*
X93322Y-17286D01*
X93414Y-17083D01*
X93512Y-16884D01*
X93614Y-16687D01*
X93721Y-16492D01*
X93833Y-16300D01*
X93950Y-16111D01*
X94071Y-15924D01*
X94197Y-15741D01*
X94327Y-15561D01*
X94462Y-15384D01*
X94600Y-15211D01*
X94743Y-15041D01*
X94891Y-14874D01*
X95042Y-14711D01*
X95197Y-14552D01*
X95356Y-14397D01*
X95519Y-14246D01*
X95686Y-14098D01*
X95856Y-13955D01*
X96029Y-13817D01*
X96206Y-13682D01*
X96386Y-13552D01*
X96569Y-13426D01*
X96756Y-13305D01*
X96945Y-13188D01*
X97137Y-13076D01*
X97332Y-12969D01*
X97529Y-12867D01*
X97728Y-12769D01*
X97931Y-12677D01*
X98135Y-12589D01*
X98341Y-12507D01*
X98549Y-12429D01*
X98760Y-12357D01*
X98971Y-12290D01*
X99185Y-12228D01*
X99400Y-12171D01*
X99616Y-12120D01*
X99833Y-12074D01*
X100052Y-12033D01*
X100271Y-11998D01*
X100492Y-11968D01*
X100712Y-11944D01*
X100934Y-11925D01*
X101156Y-11911D01*
X101378Y-11903D01*
X101600Y-11900D01*
X101822Y-11903D01*
X102044Y-11911D01*
X102266Y-11925D01*
X102488Y-11944D01*
X102708Y-11968D01*
X102929Y-11998D01*
X103148Y-12033D01*
X103367Y-12074D01*
X103584Y-12120D01*
X103800Y-12171D01*
X104015Y-12228D01*
X104229Y-12290D01*
X104440Y-12357D01*
X104651Y-12429D01*
X104859Y-12507D01*
X105065Y-12589D01*
X105269Y-12677D01*
X105472Y-12769D01*
X105671Y-12867D01*
X105868Y-12969D01*
X106063Y-13076D01*
X106255Y-13188D01*
X106444Y-13305D01*
X106631Y-13426D01*
X106814Y-13552D01*
X106994Y-13682D01*
X107171Y-13817D01*
X107344Y-13955D01*
X107514Y-14098D01*
X107681Y-14246D01*
X107844Y-14397D01*
X108003Y-14552D01*
X108158Y-14711D01*
X108309Y-14874D01*
X108457Y-15041D01*
X108600Y-15211D01*
X108738Y-15384D01*
X108873Y-15561D01*
X109003Y-15741D01*
X109129Y-15924D01*
X109250Y-16111D01*
X109367Y-16300D01*
X109479Y-16492D01*
X109586Y-16687D01*
X109688Y-16884D01*
X109786Y-17083D01*
X109878Y-17286D01*
X109966Y-17490D01*
X110048Y-17696D01*
X110126Y-17904D01*
X110198Y-18115D01*
X110265Y-18326D01*
X110327Y-18540D01*
X110384Y-18755D01*
X110435Y-18971D01*
X110481Y-19188D01*
X110522Y-19407D01*
X110557Y-19626D01*
X110587Y-19847D01*
X110611Y-20067D01*
X110630Y-20289D01*
X110644Y-20511D01*
X110652Y-20733D01*
X110655Y-20955D01*
X110652Y-21177D01*
X110644Y-21399D01*
X110630Y-21621D01*
X110611Y-21843D01*
X110587Y-22063D01*
X110557Y-22284D01*
X110522Y-22503D01*
X110481Y-22722D01*
X110435Y-22939D01*
X110384Y-23155D01*
X110327Y-23370D01*
X110265Y-23584D01*
X110198Y-23795D01*
X110126Y-24006D01*
X110048Y-24214D01*
X109966Y-24420D01*
X109878Y-24624D01*
X109786Y-24827D01*
X109688Y-25026D01*
X109586Y-25223D01*
X109479Y-25418D01*
X109367Y-25610D01*
X109250Y-25799D01*
X109129Y-25986D01*
X109003Y-26169D01*
X108873Y-26349D01*
X108738Y-26526D01*
X108600Y-26699D01*
X108457Y-26869D01*
X108309Y-27036D01*
X108158Y-27199D01*
X108003Y-27358D01*
X107844Y-27513D01*
X107681Y-27664D01*
X107514Y-27812D01*
X107344Y-27955D01*
X107171Y-28093D01*
X106994Y-28228D01*
X106814Y-28358D01*
X106631Y-28484D01*
X106444Y-28605D01*
X106255Y-28722D01*
X106063Y-28834D01*
X105868Y-28941D01*
X105671Y-29043D01*
X105472Y-29141D01*
X105269Y-29233D01*
X105065Y-29321D01*
X104859Y-29403D01*
X104651Y-29481D01*
X104440Y-29553D01*
X104229Y-29620D01*
X104015Y-29682D01*
X103800Y-29739D01*
X103584Y-29790D01*
X103367Y-29836D01*
X103148Y-29877D01*
X102929Y-29912D01*
X102708Y-29942D01*
X102488Y-29966D01*
X102266Y-29985D01*
X102044Y-29999D01*
X101822Y-30007D01*
X101600Y-30010D01*
X101378Y-30007D01*
X101156Y-29999D01*
X100934Y-29985D01*
X100712Y-29966D01*
X100492Y-29942D01*
X100271Y-29912D01*
X100052Y-29877D01*
X99833Y-29836D01*
X99616Y-29790D01*
X99400Y-29739D01*
X99185Y-29682D01*
X98971Y-29620D01*
X98760Y-29553D01*
X98549Y-29481D01*
X98341Y-29403D01*
X98135Y-29321D01*
X97931Y-29233D01*
X97728Y-29141D01*
X97529Y-29043D01*
X97332Y-28941D01*
X97137Y-28834D01*
X96945Y-28722D01*
X96756Y-28605D01*
X96569Y-28484D01*
X96386Y-28358D01*
X96206Y-28228D01*
X96029Y-28093D01*
X95856Y-27955D01*
X95686Y-27812D01*
X95519Y-27664D01*
X95356Y-27513D01*
X95197Y-27358D01*
X95042Y-27199D01*
X94891Y-27036D01*
X94743Y-26869D01*
X94600Y-26699D01*
X94462Y-26526D01*
X94327Y-26349D01*
X94197Y-26169D01*
X94071Y-25986D01*
X93950Y-25799D01*
X93833Y-25610D01*
X93721Y-25418D01*
X93614Y-25223D01*
X93512Y-25026D01*
X93414Y-24827D01*
X93322Y-24624D01*
X93234Y-24420D01*
X93152Y-24214D01*
X93074Y-24006D01*
X93002Y-23795D01*
X92935Y-23584D01*
X92873Y-23370D01*
X92816Y-23155D01*
X92765Y-22939D01*
X92719Y-22722D01*
X92678Y-22503D01*
X92643Y-22284D01*
X92613Y-22063D01*
X92589Y-21843D01*
X92570Y-21621D01*
X92556Y-21399D01*
X92548Y-21177D01*
X92545Y-20955D01*
D34*
X101600Y-20955D03*
M02*
